<svg width="30" height="30" viewBox="0 0 30 30" fill="none" xmlns="http://www.w3.org/2000/svg">
<path d="M19.5 4C21.333 5.833 23.167 7.667 25 9.5H21.071C20.204 9.5 19.5 8.796 19.5 7.929V4Z" fill="black"/>
<path d="M9 18.89V6C9 4.896 9.896 4 11 4H19.737L25 9.233V24C25 25.104 24.104 26 23 26H21.675" stroke="black" stroke-width="2" stroke-linecap="round"/>
<path d="M18.3164 23.7968C18.3867 23.7968 18.4518 23.8098 18.5117 23.8358C18.5742 23.8619 18.6289 23.8983 18.6758 23.9452C18.7227 23.9921 18.7591 24.0468 18.7852 24.1093C18.8112 24.1691 18.8242 24.2343 18.8242 24.3046C18.8242 24.3749 18.8112 24.4413 18.7852 24.5038C18.7591 24.5637 18.7227 24.6171 18.6758 24.6639C18.6289 24.7082 18.5742 24.7434 18.5117 24.7694C18.4518 24.7955 18.3867 24.8085 18.3164 24.8085H16.5508L16.5469 26.4413C16.5469 26.5481 16.5273 26.6483 16.4883 26.7421C16.4518 26.8332 16.3997 26.9139 16.332 26.9843C16.2669 27.052 16.1901 27.1053 16.1016 27.1444C16.0156 27.1835 15.9219 27.203 15.8203 27.203C15.7188 27.203 15.6237 27.1835 15.5352 27.1444C15.4492 27.1053 15.3737 27.052 15.3086 26.9843C15.2435 26.9139 15.1914 26.8332 15.1523 26.7421C15.1159 26.6483 15.0977 26.5481 15.0977 26.4413V22.2538C15.0977 22.1288 15.1224 22.0207 15.1719 21.9296C15.2214 21.8384 15.2878 21.7642 15.3711 21.7069C15.4544 21.647 15.5521 21.6027 15.6641 21.5741C15.776 21.5455 15.8932 21.5311 16.0156 21.5311H18.4375C18.5078 21.5311 18.5729 21.5455 18.6328 21.5741C18.6953 21.6001 18.75 21.6366 18.7969 21.6835C18.8438 21.7277 18.8802 21.7811 18.9062 21.8436C18.9323 21.9061 18.9453 21.9725 18.9453 22.0428C18.9453 22.1132 18.9323 22.1796 18.9062 22.2421C18.8802 22.302 18.8438 22.3553 18.7969 22.4022C18.75 22.4465 18.6953 22.4816 18.6328 22.5077C18.5729 22.5337 18.5078 22.5468 18.4375 22.5468H16.5508V23.7968H18.3164Z" fill="black"/>
<path d="M9.71094 27.203C9.57031 27.203 9.45312 27.1744 9.35938 27.1171C9.26823 27.0598 9.19531 26.9843 9.14062 26.8905C9.08594 26.7968 9.04818 26.6913 9.02734 26.5741C9.00651 26.4543 8.99609 26.3319 8.99609 26.2069V22.535C8.99609 22.3606 9.01302 22.2095 9.04688 22.0819C9.08073 21.9543 9.13672 21.8501 9.21484 21.7694C9.29297 21.6887 9.39453 21.6288 9.51953 21.5897C9.64714 21.5507 9.80339 21.5311 9.98828 21.5311H10.957C12.0221 21.5311 12.8255 21.7668 13.3672 22.2382C13.9089 22.7069 14.1797 23.4296 14.1797 24.4061C14.1797 24.8827 14.1055 25.2968 13.957 25.6483C13.8086 25.9999 13.5977 26.2915 13.3242 26.5233C13.0534 26.7525 12.7266 26.9231 12.3438 27.035C11.9609 27.147 11.5365 27.203 11.0703 27.203H9.71094ZM10.4258 26.328H10.9609C11.2578 26.328 11.513 26.2941 11.7266 26.2264C11.9401 26.1587 12.1159 26.0428 12.2539 25.8788C12.3945 25.7147 12.4974 25.5116 12.5625 25.2694C12.6302 25.0246 12.6641 24.7251 12.6641 24.371C12.6641 23.7121 12.5273 23.2212 12.2539 22.8983C11.9805 22.5754 11.5612 22.4139 10.9961 22.4139H10.4258V26.328Z" fill="black"/>
<path d="M5.04688 26.4413C5.04688 26.5481 5.02734 26.6483 4.98828 26.7421C4.94922 26.8332 4.89583 26.9139 4.82812 26.9843C4.76302 27.052 4.6862 27.1053 4.59766 27.1444C4.51172 27.1835 4.41797 27.203 4.31641 27.203C4.21484 27.203 4.11979 27.1835 4.03125 27.1444C3.94531 27.1053 3.86979 27.052 3.80469 26.9843C3.73958 26.9139 3.6875 26.8332 3.64844 26.7421C3.61198 26.6483 3.59375 26.5481 3.59375 26.4413V22.6014C3.59375 22.453 3.60286 22.3137 3.62109 22.1835C3.64193 22.0507 3.68359 21.9361 3.74609 21.8397C3.8112 21.7434 3.90495 21.6678 4.02734 21.6132C4.15234 21.5559 4.32031 21.5272 4.53125 21.5272H5.94141C6.24089 21.5272 6.52865 21.5533 6.80469 21.6053C7.08333 21.6574 7.32943 21.7499 7.54297 21.8827C7.75651 22.0129 7.92708 22.1913 8.05469 22.4178C8.18229 22.6444 8.24609 22.9309 8.24609 23.2772C8.24609 23.5767 8.1901 23.8371 8.07812 24.0585C7.96875 24.2772 7.8125 24.4595 7.60938 24.6053C7.40885 24.7512 7.16667 24.8606 6.88281 24.9335C6.59896 25.0038 6.28516 25.0389 5.94141 25.0389H5.04688V26.4413ZM5.70312 24.1678C5.86979 24.1678 6.02214 24.1535 6.16016 24.1249C6.29818 24.0962 6.41536 24.0494 6.51172 23.9843C6.61068 23.9165 6.6875 23.828 6.74219 23.7186C6.79688 23.6093 6.82422 23.4621 6.82422 23.2772C6.82422 23.0949 6.79818 22.9517 6.74609 22.8475C6.69401 22.7408 6.62109 22.6548 6.52734 22.5897C6.4362 22.5246 6.32552 22.4777 6.19531 22.4491C6.06771 22.4205 5.92578 22.4061 5.76953 22.4061H5.04688V24.1678H5.70312Z" fill="black"/>
</svg>
