<svg width="30" height="30" viewBox="0 0 30 30" fill="none" xmlns="http://www.w3.org/2000/svg">
<path fill-rule="evenodd" clip-rule="evenodd" d="M22.772 12.731L25.599 13.193C25.831 13.23 26.001 13.43 26 13.665V16.295C26 16.527 25.834 16.726 25.604 16.766L22.774 17.263C22.61 17.83 22.385 18.377 22.101 18.893L23.774 21.216C23.911 21.406 23.89 21.668 23.724 21.834L21.865 23.695C21.7 23.859 21.442 23.882 21.251 23.748L18.905 22.102C18.388 22.39 17.838 22.62 17.265 22.788L16.765 25.605C16.725 25.834 16.526 26 16.294 26H13.664C13.43 26 13.23 25.831 13.193 25.601L12.726 22.798C12.153 22.633 11.601 22.404 11.078 22.117L8.749 23.748C8.559 23.882 8.3 23.859 8.136 23.695L6.276 21.834C6.111 21.668 6.09 21.407 6.226 21.217L7.871 18.916C7.581 18.39 7.351 17.836 7.184 17.261L4.395 16.766C4.166 16.726 4 16.527 4 16.295V13.665C4 13.431 4.169 13.231 4.4 13.193L7.189 12.729C7.357 12.152 7.587 11.598 7.877 11.074L6.251 8.748C6.117 8.558 6.14 8.3 6.304 8.136L8.164 6.277C8.33 6.112 8.589 6.09 8.78 6.226L11.09 7.876C11.609 7.592 12.16 7.366 12.734 7.201L13.191 4.401C13.229 4.17 13.429 4 13.664 4H16.294C16.527 4 16.725 4.167 16.765 4.396L17.258 7.211C17.829 7.377 18.379 7.606 18.9 7.894L21.217 6.229C21.407 6.091 21.668 6.113 21.834 6.278L23.694 8.137C23.858 8.302 23.881 8.561 23.748 8.751L22.097 11.102C22.381 11.618 22.607 12.163 22.772 12.731ZM11.652 15C11.652 16.849 13.151 18.348 15 18.348C16.849 18.348 18.348 16.849 18.348 15C18.348 13.151 16.849 11.652 15 11.652C13.151 11.652 11.652 13.151 11.652 15Z" stroke="black" stroke-width="2" stroke-linecap="round"/>
</svg>
