<svg width="30" xmlns="http://www.w3.org/2000/svg" height="30" fill="none"><defs><clipPath id="a" class="frame-clip frame-clip-def"><rect rx="0" ry="0" width="30" height="30" transform="matrix(1.000000, 0.000000, 0.000000, 1.000000, 0.000000, 0.000000)"/></clipPath></defs><g class="frame-container-wrapper"><g class="frame-container-blur"><g clip-path="url(#a)" class="frame-container-shadows"><g class="fills"><rect width="30" height="30" class="frame-background" transform="matrix(1.000000, 0.000000, 0.000000, 1.000000, 0.000000, 0.000000)" style="fill: rgb(255, 255, 255); fill-opacity: 1;" ry="0" rx="0"/></g><g class="frame-children"><path d="M5.500,25.000C5.500,25.000,24.500,25.000,24.500,25.000C24.500,17.918,17.500,19.435,17.500,17.412C17.500,15.388,17.500,15.388,17.500,15.388C17.500,15.388,19.500,14.882,19.500,11.847C19.500,7.294,19.500,13.847,19.500,9.294C19.500,4.235,10.500,4.235,10.500,9.294C10.500,13.341,10.500,7.294,10.500,11.847C10.500,14.882,12.500,15.388,12.500,15.388C12.500,15.388,12.500,15.388,12.500,17.412C12.500,19.435,5.500,17.846,5.500,25.000Z" class="fills"/><g class="strokes"><path d="M5.500,25.000C5.500,25.000,24.500,25.000,24.500,25.000C24.500,17.918,17.500,19.435,17.500,17.412C17.500,15.388,17.500,15.388,17.500,15.388C17.500,15.388,19.500,14.882,19.500,11.847C19.500,7.294,19.500,13.847,19.500,9.294C19.500,4.235,10.500,4.235,10.500,9.294C10.500,13.341,10.500,7.294,10.500,11.847C10.500,14.882,12.500,15.388,12.500,15.388C12.500,15.388,12.500,15.388,12.500,17.412C12.500,19.435,5.500,17.846,5.500,25.000Z" style="fill: none; stroke-width: 2; stroke: rgb(0, 0, 0); stroke-opacity: 1; stroke-linecap: round;" class="stroke-shape"/></g></g></g></g></g></svg>