<svg width="30" xmlns="http://www.w3.org/2000/svg" height="30" fill="none"><defs><clipPath id="a" class="frame-clip frame-clip-def"><rect rx="0" ry="0" width="30" height="30" transform="matrix(1.000000, 0.000000, 0.000000, 1.000000, 0.000000, 0.000000)"/></clipPath></defs><g class="frame-container-wrapper"><g class="frame-container-blur"><g clip-path="url(#a)" class="frame-container-shadows"><g class="fills"><rect width="30" height="30" class="frame-background" transform="matrix(1.000000, 0.000000, 0.000000, 1.000000, 0.000000, 0.000000)" style="fill: rgb(255, 255, 255); fill-opacity: 1;" ry="0" rx="0"/></g><g style="fill: rgb(0, 0, 0);" class="frame-children"><rect width="4" height="4" x="7" transform="matrix(1.000000, 0.000000, 0.000000, 1.000000, 0.000000, 0.000000)" style="fill: none;" ry="0" fill="none" rx="0" y="7" class="fills"/><g fill="none" class="strokes"><rect rx="0" ry="0" x="7" y="7" transform="matrix(1.000000, 0.000000, 0.000000, 1.000000, 0.000000, 0.000000)" width="4" height="4" style="fill: none; stroke-width: 2; stroke: rgb(0, 0, 0); stroke-opacity: 1;" class="stroke-shape"/></g><rect width="4" height="4" x="19" transform="matrix(1.000000, 0.000000, 0.000000, 1.000000, 0.000000, 0.000000)" style="fill: none;" ry="0" fill="none" rx="0" y="7" class="fills"/><g fill="none" class="strokes"><rect rx="0" ry="0" x="19" y="7" transform="matrix(1.000000, 0.000000, 0.000000, 1.000000, 0.000000, 0.000000)" width="4" height="4" style="fill: none; stroke-width: 2; stroke: rgb(0, 0, 0); stroke-opacity: 1;" class="stroke-shape"/></g><rect width="4" height="4" x="7" transform="matrix(1.000000, 0.000000, 0.000000, 1.000000, 0.000000, 0.000000)" style="fill: none;" ry="0" fill="none" rx="0" y="19" class="fills"/><g fill="none" class="strokes"><rect rx="0" ry="0" x="7" y="19" transform="matrix(1.000000, 0.000000, 0.000000, 1.000000, 0.000000, 0.000000)" width="4" height="4" style="fill: none; stroke-width: 2; stroke: rgb(0, 0, 0); stroke-opacity: 1;" class="stroke-shape"/></g><rect width="1" height="1" x="6.5" transform="matrix(1.000000, 0.000000, 0.000000, 1.000000, 0.000000, 0.000000)" style="fill: none;" ry="0" fill="none" rx="0" y="14.5" class="fills"/><g fill="none" class="strokes"><rect rx="0" ry="0" x="6.5" y="14.5" transform="matrix(1.000000, 0.000000, 0.000000, 1.000000, 0.000000, 0.000000)" width="1" height="1" style="fill: none; stroke-width: 1; stroke: rgb(0, 0, 0); stroke-opacity: 1;" class="stroke-shape"/></g><rect width="1" height="1" x="10.5" transform="matrix(1.000000, 0.000000, 0.000000, 1.000000, 0.000000, 0.000000)" style="fill: none;" ry="0" fill="none" rx="0" y="14.5" class="fills"/><g fill="none" class="strokes"><rect rx="0" ry="0" x="10.5" y="14.5" transform="matrix(1.000000, 0.000000, 0.000000, 1.000000, 0.000000, 0.000000)" width="1" height="1" style="fill: none; stroke-width: 1; stroke: rgb(0, 0, 0); stroke-opacity: 1;" class="stroke-shape"/></g><rect width="1" height="1" x="14.5" transform="matrix(1.000000, 0.000000, 0.000000, 1.000000, 0.000000, 0.000000)" style="fill: none;" ry="0" fill="none" rx="0" y="14.5" class="fills"/><g fill="none" class="strokes"><rect rx="0" ry="0" x="14.5" y="14.5" transform="matrix(1.000000, 0.000000, 0.000000, 1.000000, 0.000000, 0.000000)" width="1" height="1" style="fill: none; stroke-width: 1; stroke: rgb(0, 0, 0); stroke-opacity: 1;" class="stroke-shape"/></g><rect width="1" height="1" x="14.5" transform="matrix(1.000000, 0.000000, 0.000000, 1.000000, 0.000000, 0.000000)" style="fill: none;" ry="0" fill="none" rx="0" y="18.5" class="fills"/><g fill="none" class="strokes"><rect rx="0" ry="0" x="14.5" y="18.5" transform="matrix(1.000000, 0.000000, 0.000000, 1.000000, 0.000000, 0.000000)" width="1" height="1" style="fill: none; stroke-width: 1; stroke: rgb(0, 0, 0); stroke-opacity: 1;" class="stroke-shape"/></g><rect width="1" height="1" x="14.5" transform="matrix(1.000000, 0.000000, 0.000000, 1.000000, 0.000000, 0.000000)" style="fill: none;" ry="0" fill="none" rx="0" y="22.5" class="fills"/><g fill="none" class="strokes"><rect rx="0" ry="0" x="14.5" y="22.5" transform="matrix(1.000000, 0.000000, 0.000000, 1.000000, 0.000000, 0.000000)" width="1" height="1" style="fill: none; stroke-width: 1; stroke: rgb(0, 0, 0); stroke-opacity: 1;" class="stroke-shape"/></g><rect width="1" height="1" x="14.5" transform="matrix(1.000000, 0.000000, 0.000000, 1.000000, 0.000000, 0.000000)" style="fill: none;" ry="0" fill="none" rx="0" y="10.5" class="fills"/><g fill="none" class="strokes"><rect rx="0" ry="0" x="14.5" y="10.5" transform="matrix(1.000000, 0.000000, 0.000000, 1.000000, 0.000000, 0.000000)" width="1" height="1" style="fill: none; stroke-width: 1; stroke: rgb(0, 0, 0); stroke-opacity: 1;" class="stroke-shape"/></g><rect width="1" height="1" x="14.5" transform="matrix(1.000000, 0.000000, 0.000000, 1.000000, 0.000000, 0.000000)" style="fill: none;" ry="0" fill="none" rx="0" y="6.5" class="fills"/><g fill="none" class="strokes"><rect rx="0" ry="0" x="14.5" y="6.5" transform="matrix(1.000000, 0.000000, 0.000000, 1.000000, 0.000000, 0.000000)" width="1" height="1" style="fill: none; stroke-width: 1; stroke: rgb(0, 0, 0); stroke-opacity: 1;" class="stroke-shape"/></g><rect width="1" height="1" x="18.5" transform="matrix(1.000000, 0.000000, 0.000000, 1.000000, 0.000000, 0.000000)" style="fill: none;" ry="0" fill="none" rx="0" y="14.5" class="fills"/><g fill="none" class="strokes"><rect rx="0" ry="0" x="18.5" y="14.5" transform="matrix(1.000000, 0.000000, 0.000000, 1.000000, 0.000000, 0.000000)" width="1" height="1" style="fill: none; stroke-width: 1; stroke: rgb(0, 0, 0); stroke-opacity: 1;" class="stroke-shape"/></g><rect width="1" height="1" x="22.5" transform="matrix(1.000000, 0.000000, 0.000000, 1.000000, 0.000000, 0.000000)" style="fill: none;" ry="0" fill="none" rx="0" y="14.5" class="fills"/><g fill="none" class="strokes"><rect rx="0" ry="0" x="22.5" y="14.5" transform="matrix(1.000000, 0.000000, 0.000000, 1.000000, 0.000000, 0.000000)" width="1" height="1" style="fill: none; stroke-width: 1; stroke: rgb(0, 0, 0); stroke-opacity: 1;" class="stroke-shape"/></g><rect width="1" height="1" x="18.5" transform="matrix(1.000000, 0.000000, 0.000000, 1.000000, 0.000000, 0.000000)" style="fill: none;" ry="0" fill="none" rx="0" y="18.5" class="fills"/><g fill="none" class="strokes"><rect rx="0" ry="0" x="18.5" y="18.5" transform="matrix(1.000000, 0.000000, 0.000000, 1.000000, 0.000000, 0.000000)" width="1" height="1" style="fill: none; stroke-width: 1; stroke: rgb(0, 0, 0); stroke-opacity: 1;" class="stroke-shape"/></g><rect width="1" height="1" x="22.5" transform="matrix(1.000000, 0.000000, 0.000000, 1.000000, 0.000000, 0.000000)" style="fill: none;" ry="0" fill="none" rx="0" y="18.5" class="fills"/><g fill="none" class="strokes"><rect rx="0" ry="0" x="22.5" y="18.5" transform="matrix(1.000000, 0.000000, 0.000000, 1.000000, 0.000000, 0.000000)" width="1" height="1" style="fill: none; stroke-width: 1; stroke: rgb(0, 0, 0); stroke-opacity: 1;" class="stroke-shape"/></g><rect width="1" height="1" x="18.5" transform="matrix(1.000000, 0.000000, 0.000000, 1.000000, 0.000000, 0.000000)" style="fill: none;" ry="0" fill="none" rx="0" y="22.5" class="fills"/><g fill="none" class="strokes"><rect rx="0" ry="0" x="18.5" y="22.5" transform="matrix(1.000000, 0.000000, 0.000000, 1.000000, 0.000000, 0.000000)" width="1" height="1" style="fill: none; stroke-width: 1; stroke: rgb(0, 0, 0); stroke-opacity: 1;" class="stroke-shape"/></g><rect width="1" height="1" x="22.5" transform="matrix(1.000000, 0.000000, 0.000000, 1.000000, 0.000000, 0.000000)" style="fill: none;" ry="0" fill="none" rx="0" y="22.5" class="fills"/><g fill="none" class="strokes"><rect rx="0" ry="0" x="22.5" y="22.5" transform="matrix(1.000000, 0.000000, 0.000000, 1.000000, 0.000000, 0.000000)" width="1" height="1" style="fill: none; stroke-width: 1; stroke: rgb(0, 0, 0); stroke-opacity: 1;" class="stroke-shape"/></g></g></g></g></g></svg>