<svg width="30" xmlns="http://www.w3.org/2000/svg" height="30" fill="none"><defs><clipPath id="a" class="frame-clip frame-clip-def"><rect rx="0" ry="0" width="30" height="30" transform="matrix(1.000000, 0.000000, 0.000000, 1.000000, 0.000000, 0.000000)"/></clipPath></defs><g class="frame-container-wrapper"><g class="frame-container-blur"><g clip-path="url(#a)" class="frame-container-shadows"><g class="fills"><rect width="30" height="30" class="frame-background" transform="matrix(1.000000, 0.000000, 0.000000, 1.000000, 0.000000, 0.000000)" style="fill: rgb(255, 255, 255); fill-opacity: 1;" ry="0" rx="0"/></g><g class="frame-children"><path d="M21.814,19.717C19.840,18.568,17.500,18.582,17.500,17.412C17.500,15.388,17.500,15.388,17.500,15.388C17.500,15.388,19.500,14.882,19.500,11.847C19.500,7.294,19.500,13.847,19.500,9.294C19.500,4.235,10.500,4.235,10.500,9.294C10.500,13.341,10.500,7.294,10.500,11.847C10.500,14.882,12.500,15.388,12.500,15.388C12.500,15.388,12.500,15.388,12.500,17.412C12.500,19.435,5.500,17.846,5.500,25.000C5.500,25.000,12.374,25.000,18.000,25.000" class="fills"/><g class="strokes"><path d="M21.814,19.717C19.840,18.568,17.500,18.582,17.500,17.412C17.500,15.388,17.500,15.388,17.500,15.388C17.500,15.388,19.500,14.882,19.500,11.847C19.500,7.294,19.500,13.847,19.500,9.294C19.500,4.235,10.500,4.235,10.500,9.294C10.500,13.341,10.500,7.294,10.500,11.847C10.500,14.882,12.500,15.388,12.500,15.388C12.500,15.388,12.500,15.388,12.500,17.412C12.500,19.435,5.500,17.846,5.500,25.000C5.500,25.000,12.374,25.000,18.000,25.000" style="fill: none; stroke-width: 2; stroke: rgb(0, 0, 0); stroke-opacity: 1; stroke-linecap: round;" class="stroke-shape"/></g><path d="M-136.422,15.750L-136.422,21.407" style="fill: none;" class="fills"/><g stroke-linejoin="round" class="strokes"><path d="M-136.422,15.750L-136.422,21.407" style="fill: none; stroke-width: 2; stroke: rgb(0, 0, 0); stroke-opacity: 1; stroke-linecap: round;" class="stroke-shape"/></g><path d="M-139.250,18.578L-133.593,18.578" style="fill: none;" class="fills"/><g stroke-linejoin="round" class="strokes"><path d="M-139.250,18.578L-133.593,18.578" style="fill: none; stroke-width: 2; stroke: rgb(0, 0, 0); stroke-opacity: 1; stroke-linecap: round;" class="stroke-shape"/></g><path d="M24.328,22.180L24.328,27.837" style="fill: none;" class="fills"/><g stroke-linejoin="round" class="strokes"><path d="M24.328,22.180L24.328,27.837" style="fill: none; stroke-width: 2; stroke: rgb(0, 0, 0); stroke-opacity: 1; stroke-linecap: round;" class="stroke-shape"/></g><path d="M21.500,25.008L27.157,25.008" style="fill: none;" class="fills"/><g stroke-linejoin="round" class="strokes"><path d="M21.500,25.008L27.157,25.008" style="fill: none; stroke-width: 2; stroke: rgb(0, 0, 0); stroke-opacity: 1; stroke-linecap: round;" class="stroke-shape"/></g></g></g></g></g></svg>