<svg width="30" xmlns="http://www.w3.org/2000/svg" height="30" fill="none"><defs><clipPath id="a" class="frame-clip frame-clip-def"><rect rx="0" ry="0" width="30" height="30" transform="matrix(1.000000, 0.000000, 0.000000, 1.000000, 0.000000, 0.000000)"/></clipPath></defs><g class="frame-container-wrapper"><g class="frame-container-blur"><g clip-path="url(#a)" class="frame-container-shadows"><g class="fills"><rect width="30" height="30" class="frame-background" transform="matrix(1.000000, 0.000000, 0.000000, 1.000000, 0.000000, 0.000000)" style="fill: rgb(255, 255, 255); fill-opacity: 1;" ry="0" rx="0"/></g><g class="frame-children"><path d="M11.250,9.000C11.250,10.243,10.243,11.250,9.000,11.250C7.757,11.250,6.750,10.243,6.750,9.000C6.750,7.757,7.757,6.750,9.000,6.750C10.243,6.750,11.250,7.757,11.250,9.000ZM23.250,9.000C23.250,10.243,22.243,11.250,21.000,11.250C19.757,11.250,18.750,10.243,18.750,9.000C18.750,7.757,19.757,6.750,21.000,6.750C22.243,6.750,23.250,7.757,23.250,9.000ZM23.250,21.000C23.250,22.243,22.243,23.250,21.000,23.250C19.757,23.250,18.750,22.243,18.750,21.000C18.750,19.757,19.757,18.750,21.000,18.750C22.243,18.750,23.250,19.757,23.250,21.000ZM11.250,21.000C11.250,22.243,10.243,23.250,9.000,23.250C7.757,23.250,6.750,22.243,6.750,21.000C6.750,19.757,7.757,18.750,9.000,18.750C10.243,18.750,11.250,19.757,11.250,21.000ZM17.250,15.000C17.250,16.243,16.243,17.250,15.000,17.250C13.757,17.250,12.750,16.243,12.750,15.000C12.750,13.757,13.757,12.750,15.000,12.750C16.243,12.750,17.250,13.757,17.250,15.000Z" style="fill: rgb(0, 0, 0);" class="fills"/><rect rx="4" ry="4" x="4" y="4" transform="matrix(1.000000, 0.000000, 0.000000, 1.000000, 0.000000, 0.000000)" width="22" height="22" class="fills"/><g class="strokes"><rect rx="4" ry="4" x="4" y="4" transform="matrix(1.000000, 0.000000, 0.000000, 1.000000, 0.000000, 0.000000)" width="22" height="22" style="fill: none; stroke-width: 2; stroke: rgb(0, 0, 0); stroke-opacity: 1;" class="stroke-shape"/></g></g></g></g></g></svg>