<svg width="30" height="30" viewBox="0 0 30 30" fill="none" xmlns="http://www.w3.org/2000/svg">
<path d="M13.395 13.234C13.139 12.537 13 11.785 13 11C13 7.413 15.913 4.5 19.5 4.5C23.087 4.5 26 7.413 26 11C26 14.587 23.087 17.5 19.5 17.5C18.602 17.5 17.747 17.318 16.969 16.988L16 18H13.5V20.5H11V23H8.5V25.5H4.5V22L13.395 13.234Z" stroke="black" stroke-width="2" stroke-linecap="round"/>
<path d="M20.75 11.5C21.7165 11.5 22.5 10.7165 22.5 9.75C22.5 8.7835 21.7165 8 20.75 8C19.7835 8 19 8.7835 19 9.75C19 10.7165 19.7835 11.5 20.75 11.5Z" fill="black"/>
</svg>
