<svg width="30" xmlns="http://www.w3.org/2000/svg" height="30" fill="none"><defs><clipPath id="a" class="frame-clip frame-clip-def"><rect rx="0" ry="0" width="30" height="30" transform="matrix(1.000000, 0.000000, 0.000000, 1.000000, 0.000000, 0.000000)"/></clipPath></defs><g class="frame-container-wrapper"><g class="frame-container-blur"><g clip-path="url(#a)" class="frame-container-shadows"><g class="fills"><rect width="30" height="30" class="frame-background" transform="matrix(1.000000, 0.000000, 0.000000, 1.000000, 0.000000, 0.000000)" style="fill: rgb(255, 255, 255); fill-opacity: 1;" ry="0" rx="0"/></g><g class="frame-children"><path d="M14.000,10.000L14.000,13.000" style="fill: none;" class="fills"/><g class="strokes"><path d="M14.000,10.000L14.000,13.000" style="fill: none; stroke-width: 2; stroke: rgb(0, 0, 0); stroke-opacity: 1; stroke-linecap: round;" class="stroke-shape"/></g><path d="M16.500,10.000L16.500,13.000" style="fill: none;" class="fills"/><g class="strokes"><path d="M16.500,10.000L16.500,13.000" style="fill: none; stroke-width: 2; stroke: rgb(0, 0, 0); stroke-opacity: 1; stroke-linecap: round;" class="stroke-shape"/></g><path d="M19.000,10.000L19.000,13.000" style="fill: none;" class="fills"/><g class="strokes"><path d="M19.000,10.000L19.000,13.000" style="fill: none; stroke-width: 2; stroke: rgb(0, 0, 0); stroke-opacity: 1; stroke-linecap: round;" class="stroke-shape"/></g><path d="M12.500,7.000L21.000,7.000C21.552,7.000,22.000,7.448,22.000,8.000L22.000,23.000C22.000,23.552,21.552,24.000,21.000,24.000L10.000,24.000C9.448,24.000,9.000,23.552,9.000,23.000L9.000,10.500L12.500,7.000Z" class="fills"/><g class="strokes"><path d="M12.500,7.000L21.000,7.000C21.552,7.000,22.000,7.448,22.000,8.000L22.000,23.000C22.000,23.552,21.552,24.000,21.000,24.000L10.000,24.000C9.448,24.000,9.000,23.552,9.000,23.000L9.000,10.500L12.500,7.000Z" style="fill: none; stroke-width: 2; stroke: rgb(0, 0, 0); stroke-opacity: 1;" class="stroke-shape"/></g></g></g></g></g></svg>