<svg width="30" xmlns="http://www.w3.org/2000/svg" height="30" fill="none"><defs><clipPath id="a" class="frame-clip frame-clip-def"><rect rx="0" ry="0" width="30" height="30" transform="matrix(1.000000, 0.000000, 0.000000, 1.000000, 0.000000, 0.000000)"/></clipPath></defs><g class="frame-container-wrapper"><g class="frame-container-blur"><g clip-path="url(#a)" class="frame-container-shadows"><g class="fills"><rect width="30" height="30" class="frame-background" transform="matrix(1.000000, 0.000000, 0.000000, 1.000000, 0.000000, 0.000000)" style="fill: rgb(255, 255, 255); fill-opacity: 1;" ry="0" rx="0"/></g><g class="frame-children"><path d="M20.872,22.500C20.872,22.500,7.999,22.500,7.999,22.500C1.754,22.500,2.252,14.146,7.999,14.146C7.999,5.301,21.862,5.775,21.862,12.672C28.207,12.672,28.197,22.500,20.872,22.500Z" class="fills"/><g class="strokes"><path d="M20.872,22.500C20.872,22.500,7.999,22.500,7.999,22.500C1.754,22.500,2.252,14.146,7.999,14.146C7.999,5.301,21.862,5.775,21.862,12.672C28.207,12.672,28.197,22.500,20.872,22.500Z" style="fill: none; stroke-width: 2; stroke: rgb(0, 0, 0); stroke-opacity: 1;" class="stroke-shape"/></g><path d="M12.000,13.000L18.000,19.000" style="fill: none;" class="fills"/><g stroke-linejoin="round" class="strokes"><path d="M12.000,13.000L18.000,19.000" style="fill: none; stroke-width: 2; stroke: rgb(0, 0, 0); stroke-opacity: 1; stroke-linecap: round;" class="stroke-shape"/></g><path d="M12.000,19.000L18.000,13.000" style="fill: none;" class="fills"/><g stroke-linejoin="round" class="strokes"><path d="M12.000,19.000L18.000,13.000" style="fill: none; stroke-width: 2; stroke: rgb(0, 0, 0); stroke-opacity: 1; stroke-linecap: round;" class="stroke-shape"/></g></g></g></g></g></svg>