<svg width="30" xmlns="http://www.w3.org/2000/svg" height="30" fill="none"><defs><clipPath id="a" class="frame-clip frame-clip-def"><rect rx="0" ry="0" width="30" height="30" transform="matrix(1.000000, 0.000000, 0.000000, 1.000000, 0.000000, 0.000000)"/></clipPath></defs><g class="frame-container-wrapper"><g class="frame-container-blur"><g clip-path="url(#a)" class="frame-container-shadows"><g class="fills"><rect width="30" height="30" class="frame-background" transform="matrix(1.000000, 0.000000, 0.000000, 1.000000, 0.000000, 0.000000)" style="fill: rgb(255, 255, 255); fill-opacity: 1;" ry="0" rx="0"/></g><g class="frame-children"><path d="M11.625,6.000L6.000,6.000L6.000,11.625L8.000,11.625L8.000,8.000L11.625,8.000L11.625,6.000ZZM11.625,22.000L8.000,22.000L8.000,18.375L6.000,18.375L6.000,24.000L11.625,24.000L11.625,22.000ZZM18.375,24.000L18.375,22.000L22.000,22.000L22.000,18.375L24.000,18.375L24.000,24.000L18.375,24.000ZZM18.375,8.000L18.375,6.000L24.000,6.000L24.000,11.625L22.000,11.625L22.000,8.000L18.375,8.000ZZ" fill-rule="evenodd" clip-rule="evenodd" style="fill: rgb(0, 0, 0);" class="fills"/></g></g></g></g></svg>