<svg width="30" xmlns="http://www.w3.org/2000/svg" height="30" fill="none"><defs><clipPath id="a" class="frame-clip frame-clip-def"><rect rx="0" ry="0" width="30" height="30" transform="matrix(1.000000, 0.000000, 0.000000, 1.000000, 0.000000, 0.000000)"/></clipPath></defs><g class="frame-container-wrapper"><g class="frame-container-blur"><g clip-path="url(#a)" class="frame-container-shadows"><g class="fills"><rect width="30" height="30" class="frame-background" transform="matrix(1.000000, 0.000000, 0.000000, 1.000000, 0.000000, 0.000000)" style="fill: rgb(255, 255, 255); fill-opacity: 1;" ry="0" rx="0"/></g><g class="frame-children"><path d="M13.395,13.234C13.139,12.537,13.000,11.785,13.000,11.000C13.000,7.413,15.913,4.500,19.500,4.500C23.087,4.500,26.000,7.413,26.000,11.000C26.000,14.587,23.087,17.500,19.500,17.500C18.602,17.500,17.747,17.318,16.969,16.988L16.000,18.000L13.500,18.000L13.500,20.500L11.000,20.500L11.000,23.000L8.500,23.000L8.500,25.500L4.500,25.500L4.500,22.000L13.395,13.234Z" class="fills"/><g class="strokes"><path d="M13.395,13.234C13.139,12.537,13.000,11.785,13.000,11.000C13.000,7.413,15.913,4.500,19.500,4.500C23.087,4.500,26.000,7.413,26.000,11.000C26.000,14.587,23.087,17.500,19.500,17.500C18.602,17.500,17.747,17.318,16.969,16.988L16.000,18.000L13.500,18.000L13.500,20.500L11.000,20.500L11.000,23.000L8.500,23.000L8.500,25.500L4.500,25.500L4.500,22.000L13.395,13.234Z" style="fill: none; stroke-width: 2; stroke: rgb(0, 0, 0); stroke-opacity: 1; stroke-linecap: round;" class="stroke-shape"/></g><ellipse cx="20.75" cy="9.75" rx="1.75" ry="1.75" transform="matrix(1.000000, 0.000000, 0.000000, 1.000000, 0.000000, 0.000000)" style="fill: rgb(0, 0, 0); fill-opacity: 1;" class="fills"/></g></g></g></g></svg>