<svg width="30" height="30" viewBox="0 0 30 30" fill="none" xmlns="http://www.w3.org/2000/svg">
<path d="M19.5 4C21.333 5.833 23.167 7.667 25 9.5H21.071C20.204 9.5 19.5 8.796 19.5 7.929V4Z" fill="black"/>
<path d="M9 18.89V6C9 4.896 9.896 4 11 4H19.737L25 9.233V24C25 25.104 24.104 26 23 26H21.675" stroke="black" stroke-width="2" stroke-linecap="round"/>
<path d="M17.7305 26.1444H17.75L18.9336 22.1678C18.9648 22.0585 19.0078 21.9647 19.0625 21.8866C19.1172 21.8059 19.1771 21.7395 19.2422 21.6874C19.3099 21.6353 19.3802 21.5962 19.4531 21.5702C19.5286 21.5441 19.6029 21.5311 19.6758 21.5311C19.7513 21.5311 19.8229 21.5455 19.8906 21.5741C19.9609 21.6001 20.0221 21.6392 20.0742 21.6913C20.1289 21.7434 20.1719 21.8085 20.2031 21.8866C20.2344 21.9647 20.25 22.0546 20.25 22.1561C20.25 22.2733 20.2292 22.3983 20.1875 22.5311L19.1719 25.6678C19.0859 25.9309 19.0026 26.1587 18.9219 26.3514C18.8438 26.5415 18.7526 26.7004 18.6484 26.828C18.5443 26.9556 18.4193 27.0507 18.2734 27.1132C18.1276 27.1731 17.9466 27.203 17.7305 27.203C17.5326 27.203 17.3659 27.1809 17.2305 27.1366C17.0951 27.0923 16.9753 27.0155 16.8711 26.9061C16.7695 26.7968 16.6771 26.6509 16.5938 26.4686C16.5104 26.2863 16.4232 26.0572 16.332 25.7811L15.2422 22.4803C15.224 22.4283 15.2109 22.3788 15.2031 22.3319C15.1979 22.285 15.1953 22.2395 15.1953 22.1952C15.1953 22.0936 15.2122 22.0025 15.2461 21.9218C15.2826 21.841 15.3307 21.772 15.3906 21.7147C15.4505 21.6548 15.5182 21.6093 15.5938 21.578C15.6693 21.5468 15.7487 21.5311 15.832 21.5311C15.9023 21.5311 15.9727 21.5441 16.043 21.5702C16.1159 21.5936 16.1836 21.6314 16.2461 21.6835C16.3112 21.7356 16.3698 21.8033 16.4219 21.8866C16.474 21.9673 16.5169 22.065 16.5508 22.1796L17.7305 26.1444Z" fill="black"/>
<path d="M11.5195 23.0116C11.5195 23.1366 11.5612 23.2421 11.6445 23.328C11.7279 23.4139 11.8359 23.4882 11.9688 23.5507C12.1042 23.6132 12.2565 23.6678 12.4258 23.7147C12.5951 23.7616 12.7656 23.8098 12.9375 23.8593C13.2135 23.9426 13.4635 24.0311 13.6875 24.1249C13.9141 24.2186 14.1068 24.3306 14.2656 24.4608C14.4271 24.591 14.5508 24.746 14.6367 24.9257C14.7253 25.1027 14.7695 25.3163 14.7695 25.5663C14.7695 25.8397 14.7148 26.0858 14.6055 26.3046C14.4987 26.5233 14.3438 26.7095 14.1406 26.8632C13.9375 27.0168 13.6914 27.134 13.4023 27.2147C13.1159 27.2981 12.793 27.3397 12.4336 27.3397C12.2487 27.3397 12.0625 27.328 11.875 27.3046C11.6875 27.2837 11.5065 27.2525 11.332 27.2108C11.1576 27.1691 10.9935 27.1184 10.8398 27.0585C10.6862 26.9986 10.5521 26.9309 10.4375 26.8553C10.3229 26.7798 10.2331 26.6978 10.168 26.6093C10.1029 26.5181 10.0703 26.4218 10.0703 26.3202C10.0703 26.2551 10.0833 26.1913 10.1094 26.1288C10.138 26.0663 10.1732 26.0103 10.2148 25.9608C10.2591 25.9087 10.3073 25.8671 10.3594 25.8358C10.4141 25.8046 10.4674 25.7889 10.5195 25.7889C10.5664 25.7889 10.612 25.7968 10.6562 25.8124C10.7005 25.828 10.7448 25.8475 10.7891 25.871C10.8359 25.8918 10.8828 25.9152 10.9297 25.9413C10.9792 25.9673 11.0312 25.9908 11.0859 26.0116C11.2656 26.0923 11.4674 26.1652 11.6914 26.2303C11.9154 26.2955 12.1497 26.328 12.3945 26.328C12.5273 26.328 12.6523 26.3163 12.7695 26.2928C12.8893 26.2668 12.9935 26.229 13.082 26.1796C13.1732 26.1275 13.2448 26.0611 13.2969 25.9803C13.349 25.8996 13.375 25.802 13.375 25.6874C13.375 25.6014 13.3594 25.5246 13.3281 25.4569C13.2969 25.3892 13.2539 25.3306 13.1992 25.2811C13.1445 25.229 13.0807 25.1848 13.0078 25.1483C12.9349 25.1093 12.8581 25.0754 12.7773 25.0468L12.6016 24.9843C12.5677 24.9738 12.5352 24.9634 12.5039 24.953C12.4727 24.94 12.4388 24.9283 12.4023 24.9178L12.1992 24.8593C12.1549 24.8488 12.1172 24.8397 12.0859 24.8319C12.0547 24.8215 12.026 24.8124 12 24.8046C11.9766 24.7941 11.9531 24.785 11.9297 24.7772C11.9062 24.7668 11.8789 24.7564 11.8477 24.746L11.4805 24.6171C11.2435 24.5311 11.0404 24.4413 10.8711 24.3475C10.7018 24.2538 10.5638 24.1483 10.457 24.0311C10.3503 23.9139 10.2708 23.7811 10.2188 23.6327C10.1693 23.4816 10.1445 23.3072 10.1445 23.1093C10.1445 22.8488 10.1979 22.6132 10.3047 22.4022C10.4141 22.1913 10.569 22.0116 10.7695 21.8632C10.9727 21.7147 11.2174 21.6001 11.5039 21.5194C11.793 21.4387 12.1172 21.3983 12.4766 21.3983C12.6068 21.3983 12.7487 21.4074 12.9023 21.4257C13.056 21.4413 13.2096 21.466 13.3633 21.4999C13.5169 21.5337 13.6641 21.578 13.8047 21.6327C13.9479 21.6848 14.0742 21.7473 14.1836 21.8202C14.293 21.8905 14.3802 21.9712 14.4453 22.0624C14.513 22.1535 14.5469 22.2551 14.5469 22.3671C14.5469 22.4322 14.5339 22.4921 14.5078 22.5468C14.4844 22.6014 14.4518 22.6483 14.4102 22.6874C14.3685 22.7264 14.319 22.7577 14.2617 22.7811C14.207 22.802 14.1497 22.8124 14.0898 22.8124C14.0117 22.8124 13.9401 22.7955 13.875 22.7616C13.7526 22.6991 13.638 22.6457 13.5312 22.6014C13.4271 22.5572 13.3229 22.5207 13.2188 22.4921C13.1146 22.4634 13.0065 22.4426 12.8945 22.4296C12.7852 22.4165 12.6641 22.41 12.5312 22.41C12.4062 22.41 12.2826 22.4218 12.1602 22.4452C12.0404 22.466 11.9323 22.5012 11.8359 22.5507C11.7422 22.5975 11.6654 22.6587 11.6055 22.7343C11.5482 22.8098 11.5195 22.9022 11.5195 23.0116Z" fill="black"/>
<path d="M4.33594 24.4139C4.33594 23.94 4.40495 23.5168 4.54297 23.1444C4.68359 22.7694 4.87891 22.453 5.12891 22.1952C5.37891 21.9374 5.67578 21.7408 6.01953 21.6053C6.36589 21.4673 6.74479 21.3983 7.15625 21.3983C7.48177 21.3983 7.76432 21.4191 8.00391 21.4608C8.24609 21.4999 8.44661 21.5546 8.60547 21.6249C8.76432 21.6952 8.88281 21.7785 8.96094 21.8749C9.03906 21.9712 9.07812 22.0754 9.07812 22.1874C9.07812 22.2629 9.0625 22.3293 9.03125 22.3866C9 22.4413 8.95833 22.4869 8.90625 22.5233C8.85677 22.5598 8.80078 22.5871 8.73828 22.6053C8.67578 22.621 8.61328 22.6288 8.55078 22.6288C8.51432 22.6288 8.47786 22.6288 8.44141 22.6288C8.40495 22.6262 8.36979 22.6197 8.33594 22.6093C8.23698 22.5832 8.14193 22.5585 8.05078 22.535C7.96224 22.509 7.8737 22.4869 7.78516 22.4686C7.69922 22.4504 7.61198 22.4361 7.52344 22.4257C7.4375 22.4126 7.34766 22.4061 7.25391 22.4061C7.05859 22.4061 6.8737 22.4361 6.69922 22.496C6.52734 22.5533 6.3776 22.6561 6.25 22.8046C6.1224 22.953 6.02083 23.1548 5.94531 23.41C5.8724 23.6626 5.83594 23.9856 5.83594 24.3788C5.83594 24.6809 5.86589 24.953 5.92578 25.1952C5.98568 25.4348 6.07422 25.6392 6.19141 25.8085C6.3112 25.9751 6.45964 26.104 6.63672 26.1952C6.81641 26.2837 7.02474 26.328 7.26172 26.328C7.35807 26.328 7.45833 26.3176 7.5625 26.2968C7.66667 26.2759 7.77344 26.2499 7.88281 26.2186C7.99219 26.1848 8.10286 26.147 8.21484 26.1053C8.32943 26.0637 8.44271 26.022 8.55469 25.9803C8.58854 25.9699 8.63021 25.9647 8.67969 25.9647C8.74479 25.9647 8.80339 25.9777 8.85547 26.0038C8.91016 26.0272 8.95703 26.0598 8.99609 26.1014C9.03516 26.1431 9.0651 26.1926 9.08594 26.2499C9.10677 26.3046 9.11719 26.3632 9.11719 26.4257C9.11719 26.5272 9.08333 26.621 9.01562 26.7069C8.95052 26.7902 8.86328 26.8658 8.75391 26.9335C8.64453 27.0012 8.51823 27.0611 8.375 27.1132C8.23438 27.1626 8.08854 27.2043 7.9375 27.2382C7.78646 27.272 7.63542 27.2968 7.48438 27.3124C7.33594 27.3306 7.19792 27.3397 7.07031 27.3397C6.6849 27.3397 6.32552 27.2759 5.99219 27.1483C5.65885 27.0181 5.36979 26.8293 5.125 26.5819C4.88021 26.3319 4.6875 26.0259 4.54688 25.6639C4.40625 25.2994 4.33594 24.8827 4.33594 24.4139Z" fill="black"/>
</svg>
