<svg width="30" xmlns="http://www.w3.org/2000/svg" height="30" fill="none"><defs><clipPath id="a" class="frame-clip frame-clip-def"><rect rx="0" ry="0" width="30" height="30" transform="matrix(1.000000, 0.000000, 0.000000, 1.000000, 0.000000, 0.000000)"/></clipPath></defs><g class="frame-container-wrapper"><g class="frame-container-blur"><g clip-path="url(#a)" class="frame-container-shadows"><g class="fills"><rect width="30" height="30" class="frame-background" transform="matrix(1.000000, 0.000000, 0.000000, 1.000000, 0.000000, 0.000000)" style="fill: rgb(255, 255, 255); fill-opacity: 1;" ry="0" rx="0"/></g><g class="frame-children"><path d="M22.163,12.771C22.382,13.475,22.500,14.224,22.500,15.000C22.500,19.139,19.139,22.500,15.000,22.500C10.861,22.500,7.500,19.139,7.500,15.000C7.500,10.861,10.861,7.500,15.000,7.500" class="fills"/><g class="strokes"><path d="M22.163,12.771C22.382,13.475,22.500,14.224,22.500,15.000C22.500,19.139,19.139,22.500,15.000,22.500C10.861,22.500,7.500,19.139,7.500,15.000C7.500,10.861,10.861,7.500,15.000,7.500" style="fill: none; stroke-width: 2; stroke: rgb(0, 0, 0); stroke-opacity: 1; stroke-linecap: round;" class="stroke-shape"/></g><path d="M14.735,6.073L16.149,7.487L14.735,8.901" style="fill: none;" class="fills"/><g stroke-linejoin="round" class="strokes"><path d="M14.735,6.073L16.149,7.487L14.735,8.901" style="fill: none; stroke-width: 2; stroke: rgb(0, 0, 0); stroke-opacity: 1; stroke-linecap: round;" class="stroke-shape"/></g></g></g></g></g></svg>