<svg width="30" xmlns="http://www.w3.org/2000/svg" height="30" fill="none"><defs><clipPath id="a" class="frame-clip frame-clip-def"><rect rx="0" ry="0" width="30" height="30" transform="matrix(1.000000, 0.000000, 0.000000, 1.000000, 0.000000, 0.000000)"/></clipPath></defs><g class="frame-container-wrapper"><g class="frame-container-blur"><g clip-path="url(#a)" class="frame-container-shadows"><g class="fills"><rect width="30" height="30" class="frame-background" transform="matrix(1.000000, 0.000000, 0.000000, 1.000000, 0.000000, 0.000000)" style="fill: rgb(255, 255, 255); fill-opacity: 1;" ry="0" rx="0"/></g><g class="frame-children"><path d="M22.772,12.731L25.599,13.193C25.831,13.230,26.001,13.430,26.000,13.665L26.000,16.295C26.000,16.527,25.834,16.726,25.604,16.766L22.774,17.263C22.610,17.830,22.385,18.377,22.101,18.893L23.774,21.216C23.911,21.406,23.890,21.668,23.724,21.834L21.865,23.695C21.700,23.859,21.442,23.882,21.251,23.748L18.905,22.102C18.388,22.390,17.838,22.620,17.265,22.788L16.765,25.605C16.725,25.834,16.526,26.000,16.294,26.000L13.664,26.000C13.430,26.000,13.230,25.831,13.193,25.601L12.726,22.798C12.153,22.633,11.601,22.404,11.078,22.117L8.749,23.748C8.559,23.882,8.300,23.859,8.136,23.695L6.276,21.834C6.111,21.668,6.090,21.407,6.226,21.217L7.871,18.916C7.581,18.390,7.351,17.836,7.184,17.261L4.395,16.766C4.166,16.726,4.000,16.527,4.000,16.295L4.000,13.665C4.000,13.431,4.169,13.231,4.400,13.193L7.189,12.729C7.357,12.152,7.587,11.598,7.877,11.074L6.251,8.748C6.117,8.558,6.140,8.300,6.304,8.136L8.164,6.277C8.330,6.112,8.589,6.090,8.780,6.226L11.090,7.876C11.609,7.592,12.160,7.366,12.734,7.201L13.191,4.401C13.229,4.170,13.429,4.000,13.664,4.000L16.294,4.000C16.527,4.000,16.725,4.167,16.765,4.396L17.258,7.211C17.829,7.377,18.379,7.606,18.900,7.894L21.217,6.229C21.407,6.091,21.668,6.113,21.834,6.278L23.694,8.137C23.858,8.302,23.881,8.561,23.748,8.751L22.097,11.102C22.381,11.618,22.607,12.163,22.772,12.731ZZM11.652,15.000C11.652,16.849,13.151,18.348,15.000,18.348C16.849,18.348,18.348,16.849,18.348,15.000C18.348,13.151,16.849,11.652,15.000,11.652C13.151,11.652,11.652,13.151,11.652,15.000ZZ" clip-rule="evenodd" class="fills"/><g fill-rule="evenodd" clip-rule="evenodd" class="strokes"><path d="M22.772,12.731L25.599,13.193C25.831,13.230,26.001,13.430,26.000,13.665L26.000,16.295C26.000,16.527,25.834,16.726,25.604,16.766L22.774,17.263C22.610,17.830,22.385,18.377,22.101,18.893L23.774,21.216C23.911,21.406,23.890,21.668,23.724,21.834L21.865,23.695C21.700,23.859,21.442,23.882,21.251,23.748L18.905,22.102C18.388,22.390,17.838,22.620,17.265,22.788L16.765,25.605C16.725,25.834,16.526,26.000,16.294,26.000L13.664,26.000C13.430,26.000,13.230,25.831,13.193,25.601L12.726,22.798C12.153,22.633,11.601,22.404,11.078,22.117L8.749,23.748C8.559,23.882,8.300,23.859,8.136,23.695L6.276,21.834C6.111,21.668,6.090,21.407,6.226,21.217L7.871,18.916C7.581,18.390,7.351,17.836,7.184,17.261L4.395,16.766C4.166,16.726,4.000,16.527,4.000,16.295L4.000,13.665C4.000,13.431,4.169,13.231,4.400,13.193L7.189,12.729C7.357,12.152,7.587,11.598,7.877,11.074L6.251,8.748C6.117,8.558,6.140,8.300,6.304,8.136L8.164,6.277C8.330,6.112,8.589,6.090,8.780,6.226L11.090,7.876C11.609,7.592,12.160,7.366,12.734,7.201L13.191,4.401C13.229,4.170,13.429,4.000,13.664,4.000L16.294,4.000C16.527,4.000,16.725,4.167,16.765,4.396L17.258,7.211C17.829,7.377,18.379,7.606,18.900,7.894L21.217,6.229C21.407,6.091,21.668,6.113,21.834,6.278L23.694,8.137C23.858,8.302,23.881,8.561,23.748,8.751L22.097,11.102C22.381,11.618,22.607,12.163,22.772,12.731ZZM11.652,15.000C11.652,16.849,13.151,18.348,15.000,18.348C16.849,18.348,18.348,16.849,18.348,15.000C18.348,13.151,16.849,11.652,15.000,11.652C13.151,11.652,11.652,13.151,11.652,15.000ZZ" style="fill: none; stroke-width: 2; stroke: rgb(0, 0, 0); stroke-opacity: 1; stroke-linecap: round;" class="stroke-shape"/></g></g></g></g></g></svg>