<svg width="30" height="30" viewBox="0 0 30 30" fill="none" xmlns="http://www.w3.org/2000/svg">
<path d="M21.814 19.717C19.84 18.568 17.5 18.582 17.5 17.412C17.5 15.388 17.5 15.388 17.5 15.388C17.5 15.388 19.5 14.882 19.5 11.847C19.5 7.29401 19.5 13.847 19.5 9.29401C19.5 4.23501 10.5 4.23501 10.5 9.29401C10.5 13.341 10.5 7.29401 10.5 11.847C10.5 14.882 12.5 15.388 12.5 15.388C12.5 15.388 12.5 15.388 12.5 17.412C12.5 19.435 5.5 17.846 5.5 25C5.5 25 12.374 25 18 25" stroke="black" stroke-width="2" stroke-linecap="round"/>
<path d="M24.328 22.18V27.837" stroke="black" stroke-width="2" stroke-linecap="round" stroke-linejoin="round"/>
<path d="M21.5 25.008H27.157" stroke="black" stroke-width="2" stroke-linecap="round" stroke-linejoin="round"/>
</svg>
