<svg width="30" xmlns="http://www.w3.org/2000/svg" height="30" fill="none"><defs><clipPath id="a" class="frame-clip frame-clip-def"><rect rx="0" ry="0" width="30" height="30" transform="matrix(1.000000, 0.000000, 0.000000, 1.000000, 0.000000, 0.000000)"/></clipPath></defs><g class="frame-container-wrapper"><g class="frame-container-blur"><g clip-path="url(#a)" class="frame-container-shadows"><g class="fills"><rect width="30" height="30" class="frame-background" transform="matrix(1.000000, 0.000000, 0.000000, 1.000000, 0.000000, 0.000000)" style="fill: rgb(255, 255, 255); fill-opacity: 1;" ry="0" rx="0"/></g><g class="frame-children"><rect rx="2" ry="2" x="10" y="4" transform="matrix(1.000000, 0.000000, 0.000000, 1.000000, 0.000000, 0.000000)" width="16" height="16" class="fills"/><g class="strokes"><rect rx="2" ry="2" x="10" y="4" transform="matrix(1.000000, 0.000000, 0.000000, 1.000000, 0.000000, 0.000000)" width="16" height="16" style="fill: none; stroke-width: 2; stroke: rgb(0, 0, 0); stroke-opacity: 1;" class="stroke-shape"/></g><path d="M20.000,22.620L20.000,24.000C20.000,25.104,19.104,26.000,18.000,26.000L6.000,26.000C4.896,26.000,4.000,25.104,4.000,24.000L4.000,12.000C4.000,10.896,4.896,10.000,6.000,10.000L7.500,10.000" class="fills"/><g class="strokes"><path d="M20.000,22.620L20.000,24.000C20.000,25.104,19.104,26.000,18.000,26.000L6.000,26.000C4.896,26.000,4.000,25.104,4.000,24.000L4.000,12.000C4.000,10.896,4.896,10.000,6.000,10.000L7.500,10.000" style="fill: none; stroke-width: 2; stroke: rgb(0, 0, 0); stroke-opacity: 1;" class="stroke-shape"/></g></g></g></g></g></svg>