<svg width="30" height="30" viewBox="0 0 30 30" fill="none" xmlns="http://www.w3.org/2000/svg">
<path d="M11.25 9C11.25 10.243 10.243 11.25 9 11.25C7.757 11.25 6.75 10.243 6.75 9C6.75 7.757 7.757 6.75 9 6.75C10.243 6.75 11.25 7.757 11.25 9ZM23.25 9C23.25 10.243 22.243 11.25 21 11.25C19.757 11.25 18.75 10.243 18.75 9C18.75 7.757 19.757 6.75 21 6.75C22.243 6.75 23.25 7.757 23.25 9ZM23.25 21C23.25 22.243 22.243 23.25 21 23.25C19.757 23.25 18.75 22.243 18.75 21C18.75 19.757 19.757 18.75 21 18.75C22.243 18.75 23.25 19.757 23.25 21ZM11.25 21C11.25 22.243 10.243 23.25 9 23.25C7.757 23.25 6.75 22.243 6.75 21C6.75 19.757 7.757 18.75 9 18.75C10.243 18.75 11.25 19.757 11.25 21ZM17.25 15C17.25 16.243 16.243 17.25 15 17.25C13.757 17.25 12.75 16.243 12.75 15C12.75 13.757 13.757 12.75 15 12.75C16.243 12.75 17.25 13.757 17.25 15Z" fill="black"/>
<path d="M22 4H8C5.79086 4 4 5.79086 4 8V22C4 24.2091 5.79086 26 8 26H22C24.2091 26 26 24.2091 26 22V8C26 5.79086 24.2091 4 22 4Z" stroke="black" stroke-width="2"/>
</svg>
