<svg width="30" height="30" viewBox="0 0 30 30" fill="none" xmlns="http://www.w3.org/2000/svg">
<path d="M14.81 3.666L12.474 7.087C12.397 7.201 12.39 7.347 12.456 7.468C12.522 7.588 12.651 7.663 12.791 7.664H17.463C17.604 7.664 17.733 7.588 17.799 7.467C17.866 7.346 17.858 7.199 17.78 7.085L15.444 3.666C15.373 3.562 15.254 3.5 15.127 3.5C15 3.5 14.881 3.562 14.81 3.666Z" fill="black"/>
<path d="M9.53999 13.118C9.53999 22.042 15.127 14.605 15.127 24.521M15.127 24.521C15.127 12.116 20.714 19.578 20.714 11.63M15.127 24.521V7.664" stroke="black" stroke-width="2"/>
<path d="M9.286 15.101C10.5485 15.101 11.572 14.1022 11.572 12.87C11.572 11.6379 10.5485 10.639 9.286 10.639C8.02348 10.639 7 11.6379 7 12.87C7 14.1022 8.02348 15.101 9.286 15.101Z" fill="black"/>
<path d="M15.127 27C16.8104 27 18.175 25.668 18.175 24.025C18.175 22.3819 16.8104 21.05 15.127 21.05C13.4436 21.05 12.079 22.3819 12.079 24.025C12.079 25.668 13.4436 27 15.127 27Z" fill="black"/>
<path d="M22 9.151H19.429C18.8767 9.151 18.429 9.59872 18.429 10.151V12.613C18.429 13.1653 18.8767 13.613 19.429 13.613H22C22.5523 13.613 23 13.1653 23 12.613V10.151C23 9.59872 22.5523 9.151 22 9.151Z" fill="black"/>
</svg>
