<svg width="30" xmlns="http://www.w3.org/2000/svg" height="30" fill="none"><defs><clipPath id="a" class="frame-clip frame-clip-def"><rect rx="0" ry="0" width="30" height="30" transform="matrix(1.000000, 0.000000, 0.000000, 1.000000, 0.000000, 0.000000)"/></clipPath></defs><g class="frame-container-wrapper"><g class="frame-container-blur"><g clip-path="url(#a)" class="frame-container-shadows"><g class="fills"><rect width="30" height="30" class="frame-background" transform="matrix(1.000000, 0.000000, 0.000000, 1.000000, 0.000000, 0.000000)" style="fill: rgb(255, 255, 255); fill-opacity: 1;" ry="0" rx="0"/></g><g class="frame-children"><path d="M14.810,3.666L12.474,7.087C12.397,7.201,12.390,7.347,12.456,7.468C12.522,7.588,12.651,7.663,12.791,7.664L17.463,7.664C17.604,7.664,17.733,7.588,17.799,7.467C17.866,7.346,17.858,7.199,17.780,7.085L15.444,3.666C15.373,3.562,15.254,3.500,15.127,3.500C15.000,3.500,14.881,3.562,14.810,3.666Z" style="fill: rgb(0, 0, 0);" class="fills"/><path d="M9.540,13.118C9.540,22.042,15.127,14.605,15.127,24.521C15.127,12.116,20.714,19.578,20.714,11.630M15.127,7.664L15.127,24.521" class="fills"/><g class="strokes"><path d="M9.540,13.118C9.540,22.042,15.127,14.605,15.127,24.521C15.127,12.116,20.714,19.578,20.714,11.630M15.127,7.664L15.127,24.521" style="fill: none; stroke-width: 2; stroke: rgb(0, 0, 0); stroke-opacity: 1;" class="stroke-shape"/></g><ellipse cx="9.286" cy="12.87" rx="2.286" ry="2.231" transform="matrix(1.000000, 0.000000, 0.000000, 1.000000, 0.000000, 0.000000)" style="fill: rgb(0, 0, 0); fill-opacity: 1;" class="fills"/><ellipse cx="15.127" cy="24.025" rx="3.048" ry="2.975" transform="matrix(1.000000, 0.000000, 0.000000, 1.000000, 0.000000, 0.000000)" style="fill: rgb(0, 0, 0); fill-opacity: 1;" class="fills"/><rect rx="1" ry="1" x="18.429" y="9.151" transform="matrix(1.000000, 0.000000, 0.000000, 1.000000, 0.000000, 0.000000)" width="4.571" height="4.462" style="fill: rgb(0, 0, 0); fill-opacity: 1;" class="fills"/></g></g></g></g></svg>