<svg width="30" xmlns="http://www.w3.org/2000/svg" height="30" fill="none"><defs><clipPath id="a" class="frame-clip frame-clip-def"><rect rx="0" ry="0" width="30" height="30" transform="matrix(1.000000, 0.000000, 0.000000, 1.000000, 0.000000, 0.000000)"/></clipPath></defs><g class="frame-container-wrapper"><g class="frame-container-blur"><g clip-path="url(#a)" class="frame-container-shadows"><g class="fills"><rect width="30" height="30" class="frame-background" transform="matrix(1.000000, 0.000000, 0.000000, 1.000000, 0.000000, 0.000000)" style="fill: rgb(255, 255, 255); fill-opacity: 1;" ry="0" rx="0"/></g><g style="fill: rgb(0, 0, 0);" class="frame-children"><path d="M12.096,26.641C18.526,28.244,25.037,24.331,26.641,17.903C28.244,11.474,24.331,4.962,17.902,3.359C11.474,1.756,4.962,5.669,3.360,12.098C1.756,18.527,5.669,25.038,12.096,26.641ZZM17.650,10.304C19.312,10.877,20.528,11.735,20.289,13.332C20.117,14.500,19.468,15.066,18.608,15.265C19.789,15.880,20.390,16.823,19.818,18.458C19.107,20.489,17.419,20.660,15.173,20.235L14.628,22.419L13.312,22.091L13.849,19.936C13.508,19.852,13.159,19.761,12.800,19.664L12.260,21.829L10.945,21.500L11.490,19.313C11.376,19.284,11.262,19.254,11.148,19.224C10.951,19.173,10.752,19.121,10.551,19.070L8.838,18.643L9.491,17.136C9.491,17.136,10.461,17.394,10.448,17.375C10.821,17.468,10.986,17.224,11.052,17.062L11.913,13.611C11.952,13.620,11.989,13.630,12.026,13.639C12.034,13.641,12.043,13.643,12.052,13.645C11.999,13.624,11.952,13.611,11.915,13.601L12.529,11.137C12.545,10.857,12.449,10.505,11.916,10.371C11.936,10.357,10.959,10.134,10.959,10.134L11.310,8.727L13.126,9.181L13.124,9.187C13.397,9.255,13.678,9.320,13.965,9.385L14.505,7.222L15.820,7.551L15.292,9.671C15.646,9.751,16.001,9.832,16.347,9.919L16.872,7.813L18.189,8.141L17.650,10.304ZZM13.485,18.146C14.559,18.430,16.907,19.051,17.281,17.550C17.664,16.016,15.385,15.505,14.274,15.256C14.150,15.228,14.041,15.204,13.951,15.181L13.228,18.080C13.302,18.098,13.388,18.121,13.485,18.146ZZM14.498,13.911C15.394,14.150,17.348,14.672,17.688,13.308C18.035,11.914,16.137,11.494,15.209,11.288C15.105,11.265,15.012,11.245,14.937,11.226L14.282,13.854C14.344,13.870,14.417,13.889,14.498,13.911ZZ" fill-rule="evenodd" clip-rule="evenodd" style="fill: rgb(255, 10, 170);" class="fills"/></g></g></g></g></svg>