<svg width="30" xmlns="http://www.w3.org/2000/svg" height="30" fill="none"><defs><clipPath id="a" class="frame-clip frame-clip-def"><rect rx="0" ry="0" width="30" height="30" transform="matrix(1.000000, 0.000000, 0.000000, 1.000000, 0.000000, 0.000000)"/></clipPath></defs><g class="frame-container-wrapper"><g class="frame-container-blur"><g clip-path="url(#a)" class="frame-container-shadows"><g class="fills"><rect width="30" height="30" class="frame-background" transform="matrix(1.000000, 0.000000, 0.000000, 1.000000, 0.000000, 0.000000)" style="fill: rgb(255, 255, 255); fill-opacity: 1;" ry="0" rx="0"/></g><g class="frame-children"><path d="M4.500,9.000L4.500,22.000L15.000,26.500L25.500,22.000L25.500,9.000L15.000,4.500L4.500,9.000Z" class="fills"/><g class="strokes"><path d="M4.500,9.000L4.500,22.000L15.000,26.500L25.500,22.000L25.500,9.000L15.000,4.500L4.500,9.000Z" style="fill: none; stroke-width: 2; stroke: rgb(0, 0, 0); stroke-opacity: 1;" class="stroke-shape"/></g><path d="M4.500,9.000L15.000,13.500L25.500,9.000" class="fills"/><g class="strokes"><path d="M4.500,9.000L15.000,13.500L25.500,9.000" style="fill: none; stroke-width: 2; stroke: rgb(0, 0, 0); stroke-opacity: 1;" class="stroke-shape"/></g><path d="M15.000,13.500L15.000,26.500" class="fills"/><g class="strokes"><path d="M15.000,13.500L15.000,26.500" style="fill: none; stroke-width: 2; stroke: rgb(0, 0, 0); stroke-opacity: 1;" class="stroke-shape"/></g></g></g></g></g></svg>