<svg width="30" height="30" viewBox="0 0 30 30" fill="none" xmlns="http://www.w3.org/2000/svg">
<path d="M4 24C3.5 24 3 23.5 3 23C3 22 3 11 3 10C3 9.5 3.5 9 4 9C4.5 9 5.5 9 5.5 9V8H7V9H9.5L12.5 6H20.5L23.5 9C23.5 9 24.979 9 26 9C26.5 9 27 9.5 27 10C27 11 27 22 27 23C27 23.5 26.5 24 26 24C25 24 4 24 4 24Z" stroke="black" stroke-width="2"/>
<path d="M16.75 17C17.7165 17 18.5 16.2165 18.5 15.25C18.5 14.2835 17.7165 13.5 16.75 13.5C15.7835 13.5 15 14.2835 15 15.25C15 16.2165 15.7835 17 16.75 17Z" stroke="black" stroke-width="2"/>
<path d="M6.75 13.5C7.16421 13.5 7.5 13.1642 7.5 12.75C7.5 12.3358 7.16421 12 6.75 12C6.33579 12 6 12.3358 6 12.75C6 13.1642 6.33579 13.5 6.75 13.5Z" stroke="black" stroke-width="2"/>
<path d="M16.75 20.5C19.6495 20.5 22 18.1495 22 15.25C22 12.3505 19.6495 10 16.75 10C13.8505 10 11.5 12.3505 11.5 15.25C11.5 18.1495 13.8505 20.5 16.75 20.5Z" stroke="black" stroke-width="2"/>
</svg>
