<svg width="30" xmlns="http://www.w3.org/2000/svg" height="30" id="screenshot-9a81e5fd-d459-80dc-8006-0bed5ca077bc" fill="none" version="1.1"><g id="shape-9a81e5fd-d459-80dc-8006-0bed5ca077bc"><defs><clipPath id="frame-clip-9a81e5fd-d459-80dc-8006-0bed5ca077bc-render-135" class="frame-clip frame-clip-def"><rect rx="0" ry="0" width="30" height="30" transform="matrix(1.000000, 0.000000, 0.000000, 1.000000, 0.000000, 0.000000)"/></clipPath></defs><g class="frame-container-wrapper"><g class="frame-container-blur"><g clip-path="url(#frame-clip-9a81e5fd-d459-80dc-8006-0bed5ca077bc-render-135)" class="frame-container-shadows"><g class="fills" id="fills-9a81e5fd-d459-80dc-8006-0bed5ca077bc"><rect width="30" height="30" class="frame-background" transform="matrix(1.000000, 0.000000, 0.000000, 1.000000, 0.000000, 0.000000)" style="fill: rgb(255, 255, 255); fill-opacity: 1;" ry="0" rx="0"/></g><g class="frame-children"><g id="shape-9a81e5fd-d459-80dc-8006-0bee0fac1a4f"><path d="M4.000,24.000C3.500,24.000,3.000,23.500,3.000,23.000C3.000,22.000,3.000,11.000,3.000,10.000C3.000,9.500,3.500,9.000,4.000,9.000C4.500,9.000,5.500,9.000,5.500,9.000L5.500,8.000L7.000,8.000L7.000,9.000L9.500,9.000L12.500,6.000L20.500,6.000L23.500,9.000C23.500,9.000,24.979,9.000,26.000,9.000C26.500,9.000,27.000,9.500,27.000,10.000C27.000,11.000,27.000,22.000,27.000,23.000C27.000,23.500,26.500,24.000,26.000,24.000C25.000,24.000,4.000,24.000,4.000,24.000ZM5.500,9.000" class="fills" id="fills-9a81e5fd-d459-80dc-8006-0bee0fac1a4f"/><g id="strokes-4d59de78-390c-808a-8006-12e0b90c5dfa-9a81e5fd-d459-80dc-8006-0bee0fac1a4f" class="strokes"><path d="M4.000,24.000C3.500,24.000,3.000,23.500,3.000,23.000C3.000,22.000,3.000,11.000,3.000,10.000C3.000,9.500,3.500,9.000,4.000,9.000C4.500,9.000,5.500,9.000,5.500,9.000L5.500,8.000L7.000,8.000L7.000,9.000L9.500,9.000L12.500,6.000L20.500,6.000L23.500,9.000C23.500,9.000,24.979,9.000,26.000,9.000C26.500,9.000,27.000,9.500,27.000,10.000C27.000,11.000,27.000,22.000,27.000,23.000C27.000,23.500,26.500,24.000,26.000,24.000C25.000,24.000,4.000,24.000,4.000,24.000ZM5.500,9.000" style="fill: none; stroke-width: 2; stroke: rgb(0, 0, 0); stroke-opacity: 1;" class="stroke-shape"/></g></g><g id="shape-9a81e5fd-d459-80dc-8006-0beea1250c6d"><ellipse cx="16.75" cy="15.25" rx="1.75" ry="1.75" transform="matrix(1.000000, 0.000000, 0.000000, 1.000000, 0.000000, 0.000000)" class="fills" id="fills-9a81e5fd-d459-80dc-8006-0beea1250c6d"/><g id="strokes-4d59de78-390c-808a-8006-12e0b90c9188-9a81e5fd-d459-80dc-8006-0beea1250c6d" class="strokes"><ellipse cx="16.75" cy="15.25" rx="1.75" ry="1.75" transform="matrix(1.000000, 0.000000, 0.000000, 1.000000, 0.000000, 0.000000)" style="fill: none; stroke-width: 2; stroke: rgb(0, 0, 0); stroke-opacity: 1;" class="stroke-shape"/></g></g><g id="shape-9a81e5fd-d459-80dc-8006-0befb74daa07"><ellipse cx="6.75" cy="12.75" rx=".75" ry=".75" transform="matrix(1.000000, 0.000000, 0.000000, 1.000000, 0.000000, 0.000000)" class="fills" id="fills-9a81e5fd-d459-80dc-8006-0befb74daa07"/><g id="strokes-4d59de78-390c-808a-8006-12e0b90cf066-9a81e5fd-d459-80dc-8006-0befb74daa07" class="strokes"><ellipse cx="6.75" cy="12.75" rx=".75" ry=".75" transform="matrix(1.000000, 0.000000, 0.000000, 1.000000, 0.000000, 0.000000)" style="fill: none; stroke-width: 2; stroke: rgb(0, 0, 0); stroke-opacity: 1;" class="stroke-shape"/></g></g><g id="shape-9a81e5fd-d459-80dc-8006-0beeb815c4d7"><ellipse cx="16.75" cy="15.25" rx="5.25" ry="5.25" transform="matrix(1.000000, 0.000000, 0.000000, 1.000000, 0.000000, 0.000000)" class="fills" id="fills-9a81e5fd-d459-80dc-8006-0beeb815c4d7"/><g id="strokes-4d59de78-390c-808a-8006-12e0b90cf067-9a81e5fd-d459-80dc-8006-0beeb815c4d7" class="strokes"><ellipse cx="16.75" cy="15.25" rx="5.25" ry="5.25" transform="matrix(1.000000, 0.000000, 0.000000, 1.000000, 0.000000, 0.000000)" style="fill: none; stroke-width: 2; stroke: rgb(0, 0, 0); stroke-opacity: 1;" class="stroke-shape"/></g></g></g></g></g></g></g></svg>