<svg width="30" xmlns="http://www.w3.org/2000/svg" height="30" fill="none"><defs><clipPath id="a" class="frame-clip frame-clip-def"><rect rx="0" ry="0" width="30" height="30" transform="matrix(1.000000, 0.000000, 0.000000, 1.000000, 0.000000, 0.000000)"/></clipPath></defs><g class="frame-container-wrapper"><g class="frame-container-blur"><g clip-path="url(#a)" class="frame-container-shadows"><g class="fills"><rect width="30" height="30" class="frame-background" transform="matrix(1.000000, 0.000000, 0.000000, 1.000000, 0.000000, 0.000000)" style="fill: rgb(255, 255, 255); fill-opacity: 1;" ry="0" rx="0"/></g><g class="frame-children"><path d="M16.176,21.325C16.176,21.325,22.198,15.304,25.372,12.130C30.313,7.188,22.889,-0.236,17.941,4.712C13.346,9.306,7.338,15.314,4.157,18.495C0.623,22.029,5.909,27.350,9.461,23.799C13.012,20.247,17.589,15.670,19.710,13.549C21.830,11.429,18.648,8.247,16.528,10.367C14.407,12.488,10.873,16.022,10.873,16.022" class="fills"/><g class="strokes"><path d="M16.176,21.325C16.176,21.325,22.198,15.304,25.372,12.130C30.313,7.188,22.889,-0.236,17.941,4.712C13.346,9.306,7.338,15.314,4.157,18.495C0.623,22.029,5.909,27.350,9.461,23.799C13.012,20.247,17.589,15.670,19.710,13.549C21.830,11.429,18.648,8.247,16.528,10.367C14.407,12.488,10.873,16.022,10.873,16.022" style="fill: none; stroke-width: 2; stroke: rgb(0, 0, 0); stroke-opacity: 1; stroke-linecap: round;" class="stroke-shape"/></g></g></g></g></g></svg>