<svg width="30" xmlns="http://www.w3.org/2000/svg" height="30" id="screenshot-96a9d525-b8f4-8008-8006-02e12e3bb61f" fill="none" version="1.1"><style>/* cyrillic-ext */
@font-face {
  font-family: &apos;Nunito&apos;;
  font-style: normal;
  font-weight: 700;
  font-display: block;
  src: url(https://design.penpot.app/internal/gfonts/font/nunito/v26/XRXI3I6Li01BKofiOc5wtlZ2di8HDFwmdTk3j77e.woff2) format(&apos;woff2&apos;);
  unicode-range: U+0460-052F, U+1C80-1C8A, U+20B4, U+2DE0-2DFF, U+A640-A69F, U+FE2E-FE2F;
}
/* cyrillic */
@font-face {
  font-family: &apos;Nunito&apos;;
  font-style: normal;
  font-weight: 700;
  font-display: block;
  src: url(https://design.penpot.app/internal/gfonts/font/nunito/v26/XRXI3I6Li01BKofiOc5wtlZ2di8HDFwmdTA3j77e.woff2) format(&apos;woff2&apos;);
  unicode-range: U+0301, U+0400-045F, U+0490-0491, U+04B0-04B1, U+2116;
}
/* vietnamese */
@font-face {
  font-family: &apos;Nunito&apos;;
  font-style: normal;
  font-weight: 700;
  font-display: block;
  src: url(https://design.penpot.app/internal/gfonts/font/nunito/v26/XRXI3I6Li01BKofiOc5wtlZ2di8HDFwmdTs3j77e.woff2) format(&apos;woff2&apos;);
  unicode-range: U+0102-0103, U+0110-0111, U+0128-0129, U+0168-0169, U+01A0-01A1, U+01AF-01B0, U+0300-0301, U+0303-0304, U+0308-0309, U+0323, U+0329, U+1EA0-1EF9, U+20AB;
}
/* latin-ext */
@font-face {
  font-family: &apos;Nunito&apos;;
  font-style: normal;
  font-weight: 700;
  font-display: block;
  src: url(https://design.penpot.app/internal/gfonts/font/nunito/v26/XRXI3I6Li01BKofiOc5wtlZ2di8HDFwmdTo3j77e.woff2) format(&apos;woff2&apos;);
  unicode-range: U+0100-02BA, U+02BD-02C5, U+02C7-02CC, U+02CE-02D7, U+02DD-02FF, U+0304, U+0308, U+0329, U+1D00-1DBF, U+1E00-1E9F, U+1EF2-1EFF, U+2020, U+20A0-20AB, U+20AD-20C0, U+2113, U+2C60-2C7F, U+A720-A7FF;
}
/* latin */
@font-face {
  font-family: &apos;Nunito&apos;;
  font-style: normal;
  font-weight: 700;
  font-display: block;
  src: url(https://design.penpot.app/internal/gfonts/font/nunito/v26/XRXI3I6Li01BKofiOc5wtlZ2di8HDFwmdTQ3jw.woff2) format(&apos;woff2&apos;);
  unicode-range: U+0000-00FF, U+0131, U+0152-0153, U+02BB-02BC, U+02C6, U+02DA, U+02DC, U+0304, U+0308, U+0329, U+2000-206F, U+20AC, U+2122, U+2191, U+2193, U+2212, U+2215, U+FEFF, U+FFFD;
}</style><g id="shape-96a9d525-b8f4-8008-8006-02e12e3bb61f"><defs><clipPath id="frame-clip-96a9d525-b8f4-8008-8006-02e12e3bb61f-render-143" class="frame-clip frame-clip-def"><rect rx="0" ry="0" width="30" height="30" transform="matrix(1.000000, 0.000000, 0.000000, 1.000000, 0.000000, 0.000000)"/></clipPath></defs><g class="frame-container-wrapper"><g class="frame-container-blur"><g clip-path="url(#frame-clip-96a9d525-b8f4-8008-8006-02e12e3bb61f-render-143)" class="frame-container-shadows"><g class="fills" id="fills-96a9d525-b8f4-8008-8006-02e12e3bb61f"><rect width="30" height="30" class="frame-background" transform="matrix(1.000000, 0.000000, 0.000000, 1.000000, 0.000000, 0.000000)" style="fill: rgb(255, 255, 255); fill-opacity: 1;" ry="0" rx="0"/></g><g class="frame-children"><g id="shape-96a9d525-b8f4-8008-8006-02e12e3bb620"><path d="M8.310,17.114C7.837,15.658,7.837,14.089,8.310,12.633" style="fill: none;" class="fills" id="fills-96a9d525-b8f4-8008-8006-02e12e3bb620"/><g fill="none" id="strokes-4d59de78-390c-808a-8006-12e0b90d5533-96a9d525-b8f4-8008-8006-02e12e3bb620" class="strokes"><path d="M8.310,17.114C7.837,15.658,7.837,14.089,8.310,12.633" style="fill: none; stroke-width: 1; stroke: rgb(255, 228, 132); stroke-opacity: 1; stroke-linecap: round;" class="stroke-shape"/></g></g><g id="shape-96a9d525-b8f4-8008-8006-02e12e3bb621"><path d="M13.890,22.308C12.393,21.989,11.034,21.205,10.010,20.067" style="fill: none;" class="fills" id="fills-96a9d525-b8f4-8008-8006-02e12e3bb621"/><g fill="none" id="strokes-4d59de78-390c-808a-8006-12e0b90da47d-96a9d525-b8f4-8008-8006-02e12e3bb621" class="strokes"><path d="M13.890,22.308C12.393,21.989,11.034,21.205,10.010,20.067" style="fill: none; stroke-width: 1; stroke: rgb(255, 228, 132); stroke-opacity: 1; stroke-linecap: round;" class="stroke-shape"/></g></g><g id="shape-96a9d525-b8f4-8008-8006-02e12e3bb622"><path d="M10.010,9.854C11.034,8.716,12.393,7.931,13.890,7.613" style="fill: none;" class="fills" id="fills-96a9d525-b8f4-8008-8006-02e12e3bb622"/><g fill="none" id="strokes-4d59de78-390c-808a-8006-12e0b90dd0dc-96a9d525-b8f4-8008-8006-02e12e3bb622" class="strokes"><path d="M10.010,9.854C11.034,8.716,12.393,7.931,13.890,7.613" style="fill: none; stroke-width: 1; stroke: rgb(255, 228, 132); stroke-opacity: 1; stroke-linecap: round;" class="stroke-shape"/></g></g><g id="shape-96a9d525-b8f4-8008-8006-02e12e3bb623"><g id="shape-96a9d525-b8f4-8008-8006-02e12e3bb624"><path d="M21.500,14.872C21.500,14.285,21.416,13.717,21.258,13.180C21.189,12.946,21.280,12.690,21.491,12.568L23.262,11.545C23.520,11.396,23.852,11.505,23.954,11.785C24.325,12.801,24.511,13.879,24.499,14.969C24.488,15.994,24.302,17.005,23.954,17.959C23.852,18.239,23.520,18.348,23.262,18.199L21.491,17.176C21.280,17.054,21.189,16.798,21.258,16.564C21.416,16.027,21.500,15.460,21.500,14.872ZL21.500,14.872Z" fill-rule="evenodd" clip-rule="evenodd" style="fill: rgb(255, 228, 132);" class="fills" id="fills-96a9d525-b8f4-8008-8006-02e12e3bb624"/></g><g id="shape-96a9d525-b8f4-8008-8006-02e12e3bb625"><path d="M18.571,20.126C19.080,19.832,19.529,19.475,19.915,19.071C20.084,18.894,20.351,18.844,20.562,18.966L22.333,19.988C22.591,20.137,22.663,20.479,22.472,20.707C21.778,21.537,20.937,22.237,19.987,22.772C19.094,23.275,18.125,23.619,17.124,23.795C16.831,23.846,16.571,23.613,16.571,23.315L16.571,21.270C16.571,21.026,16.748,20.820,16.985,20.762C17.528,20.630,18.062,20.420,18.571,20.126ZL18.571,20.126Z" fill-rule="evenodd" clip-rule="evenodd" style="fill: rgb(255, 228, 132);" class="fills" id="fills-96a9d525-b8f4-8008-8006-02e12e3bb625"/></g><g id="shape-96a9d525-b8f4-8008-8006-02e12e3bb626"><path d="M18.571,9.795C19.080,10.089,19.529,10.446,19.915,10.850C20.084,11.027,20.351,11.077,20.562,10.955L22.333,9.932C22.591,9.783,22.663,9.442,22.472,9.213C21.778,8.384,20.937,7.684,19.987,7.149C19.094,6.646,18.125,6.302,17.124,6.126C16.831,6.075,16.571,6.308,16.571,6.606L16.571,8.651C16.571,8.895,16.748,9.101,16.985,9.158C17.528,9.290,18.062,9.501,18.571,9.795ZL18.571,9.795Z" fill-rule="evenodd" clip-rule="evenodd" style="fill: rgb(255, 228, 132);" class="fills" id="fills-96a9d525-b8f4-8008-8006-02e12e3bb626"/></g></g><g transform="matrix(1.000000, 0.000000, 0.000000, 1.000000, 0.000000, 0.000000)" class="text-container" id="shape-1e07ac11-2308-80d6-8006-02e3bec3164d"><defs><pattern patternUnits="userSpaceOnUse" x="8.5" y="7" width="4.805" height="11" id="fill-0-render-151-0"><rect width="4.805" height="11" style="fill: rgb(255, 228, 132); fill-opacity: 1;"/></pattern></defs><text x="13.094" y="20.203" dominant-baseline="ideographic" textLength="4.805" lengthAdjust="spacingAndGlyphs" style="text-transform: none; font-family: Nunito; letter-spacing: normal; font-style: normal; font-weight: 700; white-space: pre; font-size: 8px; text-decoration: none solid rgb(255, 228, 132); direction: ltr; fill: rgb(255, 228, 132); fill-opacity: 1;" class="fills" id="fills-1e07ac11-2308-80d6-8006-02e3bec3164d">3</text></g></g></g></g></g></g></svg>