<svg width="30" height="30" viewBox="0 0 30 30" fill="none" xmlns="http://www.w3.org/2000/svg">
<path d="M6.40405 18.029C5.80565 16.187 5.80565 14.202 6.40405 12.36" stroke="#FE1D01" stroke-linecap="round"/>
<path d="M24.5965 12.36C25.1949 14.202 25.1949 16.187 24.5965 18.029" stroke="#FE1D01" stroke-linecap="round"/>
<path d="M13.4634 24.6C11.5695 24.1964 9.85023 23.2046 8.55475 21.7649" stroke="#FE1D01" stroke-linecap="round"/>
<path d="M8.55475 8.84424C9.85023 7.40454 11.5695 6.41142 13.4634 6.00911" stroke="#FE1D01" stroke-linecap="round"/>
<path d="M22.5609 21.7649C21.2641 23.2046 19.5461 24.1964 17.651 24.6" stroke="#FE1D01" stroke-linecap="round"/>
<path fill-rule="evenodd" clip-rule="evenodd" d="M19.3854 8.76958C20.0294 9.14152 20.5974 9.59317 21.0857 10.1043C21.2995 10.3282 21.6373 10.3915 21.9043 10.2371L24.1448 8.9429C24.4712 8.7544 24.5623 8.32299 24.3207 8.03328C23.4427 6.9845 22.3787 6.09891 21.1768 5.42208C20.0471 4.78572 18.8212 4.35052 17.5548 4.12786C17.1841 4.06334 16.8552 4.35811 16.8552 4.73512V7.32228C16.8552 7.63097 17.0791 7.89159 17.3789 7.9637C18.0659 8.13069 18.7415 8.39763 19.3854 8.76958Z" fill="#FE1D01"/>
<path d="M14.2005 13.47C14.0951 13.526 13.993 13.554 13.8941 13.554C13.8085 13.554 13.7294 13.5375 13.6569 13.5045C13.5845 13.4683 13.5219 13.4222 13.4691 13.3662C13.4164 13.3102 13.3753 13.2459 13.3456 13.1734C13.316 13.0977 13.3011 13.0202 13.3011 12.9412C13.3011 12.8226 13.3324 12.7204 13.395 12.6348C13.4609 12.5491 13.563 12.4635 13.7014 12.3778L15.3421 11.4438C15.4377 11.3878 15.5381 11.3367 15.6436 11.2906C15.749 11.2445 15.8594 11.2214 15.9747 11.2214C16.2679 11.2214 16.482 11.3268 16.6171 11.5377C16.7555 11.7452 16.8247 12.045 16.8247 12.4371V17.2159C16.8247 17.3773 16.8115 17.5305 16.7851 17.6755C16.7588 17.8172 16.711 17.9423 16.6418 18.0511C16.5759 18.1598 16.4853 18.2454 16.37 18.308C16.2547 18.3706 16.1081 18.4019 15.9302 18.4019C15.6205 18.4019 15.3965 18.2932 15.2581 18.0758C15.1197 17.8583 15.0505 17.5338 15.0505 17.1022V12.9511L14.2005 13.47Z" fill="#FE1D01"/>
</svg>
