<svg width="30" height="30" viewBox="0 0 30 30" fill="none" xmlns="http://www.w3.org/2000/svg">
<path d="M6.40406 17.6329C5.80566 15.7909 5.80566 13.8059 6.40406 11.9639" stroke="#D63384" stroke-linecap="round"/>
<path d="M24.5965 11.9639C25.1949 13.8059 25.1949 15.7909 24.5965 17.6329" stroke="#D63384" stroke-linecap="round"/>
<path d="M13.4634 24.2039C11.5695 23.8004 9.85023 22.8085 8.55475 21.3688" stroke="#D63384" stroke-linecap="round"/>
<path d="M8.55475 8.44814C9.85023 7.00843 11.5695 6.01531 13.4634 5.61301" stroke="#D63384" stroke-linecap="round"/>
<path d="M22.5609 21.3688C21.2642 22.8085 19.5461 23.8004 17.651 24.2039" stroke="#D63384" stroke-linecap="round"/>
<path d="M17.651 5.61301C19.5461 6.01531 21.2642 7.00843 22.5609 8.44814" stroke="#D63384" stroke-linecap="round"/>
<path d="M15.6633 12.0212C15.436 12.0212 15.2515 12.0822 15.1098 12.2041C14.9681 12.3227 14.8578 12.4923 14.7787 12.7131C14.7029 12.9305 14.6502 13.1908 14.6206 13.4939C14.5942 13.797 14.581 14.1314 14.581 14.4971C14.581 14.8628 14.5942 15.1972 14.6206 15.5003C14.6502 15.8034 14.7029 16.0637 14.7787 16.2811C14.8578 16.4985 14.9681 16.6666 15.1098 16.7852C15.2515 16.9038 15.436 16.9631 15.6633 16.9631C15.8873 16.9631 16.0702 16.9038 16.2118 16.7852C16.3535 16.6666 16.4639 16.5002 16.5429 16.286C16.622 16.0719 16.6764 15.8133 16.706 15.5102C16.7357 15.2071 16.7505 14.8694 16.7505 14.4971C16.7505 14.1347 16.7357 13.8019 16.706 13.4988C16.6797 13.1957 16.627 12.9355 16.5479 12.718C16.4688 12.4973 16.3584 12.326 16.2168 12.2041C16.0751 12.0822 15.8906 12.0212 15.6633 12.0212ZM15.6633 10.8105C16.1838 10.8105 16.6253 10.9076 16.9877 11.102C17.3501 11.2931 17.6433 11.555 17.8674 11.8878C18.0947 12.2205 18.2594 12.6109 18.3615 13.059C18.4637 13.5071 18.5147 13.9864 18.5147 14.4971C18.5147 14.8331 18.4933 15.1577 18.4505 15.4706C18.4077 15.7803 18.3385 16.0719 18.2429 16.3454C18.1507 16.6188 18.0304 16.8692 17.8822 17.0965C17.7339 17.3205 17.5544 17.5133 17.3435 17.6747C17.1327 17.8361 16.8872 17.9613 16.6072 18.0503C16.3304 18.1392 16.0158 18.1837 15.6633 18.1837C15.1362 18.1837 14.6914 18.0882 14.329 17.8971C13.9666 17.7027 13.6717 17.4392 13.4444 17.1064C13.2204 16.7704 13.0589 16.3799 12.9601 15.9352C12.8612 15.4871 12.8118 15.0078 12.8118 14.4971C12.8118 14.1676 12.8316 13.8481 12.8711 13.5384C12.914 13.2287 12.9815 12.9371 13.0737 12.6637C13.166 12.3902 13.2846 12.1398 13.4296 11.9125C13.5778 11.6852 13.7574 11.4908 13.9682 11.3294C14.1791 11.1646 14.4245 11.0378 14.7046 10.9488C14.9846 10.8566 15.3042 10.8105 15.6633 10.8105Z" fill="#D63384"/>
</svg>
