<svg width="30" xmlns="http://www.w3.org/2000/svg" height="30" fill="none"><defs><clipPath id="a" class="frame-clip frame-clip-def"><rect rx="0" ry="0" width="30" height="30" transform="matrix(1.000000, 0.000000, 0.000000, 1.000000, 0.000000, 0.000000)"/></clipPath></defs><g class="frame-container-wrapper"><g class="frame-container-blur"><g clip-path="url(#a)" class="frame-container-shadows"><g class="fills"><rect width="30" height="30" class="frame-background" transform="matrix(1.000000, 0.000000, 0.000000, 1.000000, 0.000000, 0.000000)" style="fill: rgb(255, 255, 255); fill-opacity: 1;" ry="0" rx="0"/></g><g class="frame-children"><ellipse cx="15" cy="19" rx="1.25" ry="1.25" transform="matrix(1.000000, 0.000000, 0.000000, 1.000000, 0.000000, 0.000000)" style="fill: rgb(254, 29, 1); fill-opacity: 1;" class="fills"/><path d="M15.000,15.750L15.000,9.750" class="fills"/><g class="strokes"><path d="M15.000,15.750L15.000,9.750" style="fill: none; stroke-width: 2; stroke: rgb(254, 29, 1); stroke-opacity: 1; stroke-linecap: round;" class="stroke-shape"/></g><ellipse cx="15" cy="15" rx="10" ry="10" transform="matrix(1.000000, 0.000000, 0.000000, 1.000000, 0.000000, 0.000000)" class="fills"/><g class="strokes"><ellipse cx="15" cy="15" rx="10" ry="10" transform="matrix(1.000000, 0.000000, 0.000000, 1.000000, 0.000000, 0.000000)" style="fill: none; stroke-width: 2; stroke: rgb(254, 29, 1); stroke-opacity: 1;" class="stroke-shape"/></g></g></g></g></g></svg>