<svg width="30" xmlns="http://www.w3.org/2000/svg" height="30" fill="none"><defs><clipPath id="a" class="frame-clip frame-clip-def"><rect rx="0" ry="0" width="30" height="30" transform="matrix(1.000000, 0.000000, 0.000000, 1.000000, 0.000000, 0.000000)"/></clipPath></defs><g class="frame-container-wrapper"><g class="frame-container-blur"><g clip-path="url(#a)" class="frame-container-shadows"><g class="fills"><rect width="30" height="30" class="frame-background" transform="matrix(1.000000, 0.000000, 0.000000, 1.000000, 0.000000, 0.000000)" style="fill: rgb(255, 255, 255); fill-opacity: 1;" ry="0" rx="0"/></g><g class="frame-children"><path d="M25.000,8.000L13.500,8.000L11.000,5.500L4.000,5.500C4.000,5.500,5.000,21.500,5.000,23.000C5.000,24.500,6.000,24.500,7.000,24.500C8.000,24.500,25.000,24.500,25.000,24.500L27.500,11.500L9.000,11.500L7.000,24.000" class="fills"/><g class="strokes"><path d="M25.000,8.000L13.500,8.000L11.000,5.500L4.000,5.500C4.000,5.500,5.000,21.500,5.000,23.000C5.000,24.500,6.000,24.500,7.000,24.500C8.000,24.500,25.000,24.500,25.000,24.500L27.500,11.500L9.000,11.500L7.000,24.000" style="fill: none; stroke-width: 2; stroke: rgb(0, 0, 0); stroke-opacity: 1; stroke-linecap: round;" class="stroke-shape"/></g></g></g></g></g></svg>