<svg width="30" xmlns="http://www.w3.org/2000/svg" height="30" fill="none"><defs><clipPath id="a" class="frame-clip frame-clip-def"><rect rx="0" ry="0" width="30" height="30" transform="matrix(1.000000, 0.000000, 0.000000, 1.000000, 0.000000, 0.000000)"/></clipPath></defs><g class="frame-container-wrapper"><g class="frame-container-blur"><g clip-path="url(#a)" class="frame-container-shadows"><g class="fills"><rect width="30" height="30" class="frame-background" transform="matrix(1.000000, 0.000000, 0.000000, 1.000000, 0.000000, 0.000000)" style="fill: rgb(255, 255, 255); fill-opacity: 1;" ry="0" rx="0"/></g><g class="frame-children"><path d="M7.500,12.000L4.500,16.995M4.500,12.000L7.500,16.995M9.000,14.498L3.000,14.498" class="fills"/><g class="strokes"><path d="M7.500,12.000L4.500,16.995M4.500,12.000L7.500,16.995M9.000,14.498L3.000,14.498" style="fill: none; stroke-width: 2; stroke: rgb(0, 0, 0); stroke-opacity: 1; stroke-linecap: round;" class="stroke-shape"/></g><path d="M25.500,12.000L22.500,16.995M22.500,12.000L25.500,16.995M27.000,14.498L21.000,14.498" class="fills"/><g class="strokes"><path d="M25.500,12.000L22.500,16.995M22.500,12.000L25.500,16.995M27.000,14.498L21.000,14.498" style="fill: none; stroke-width: 2; stroke: rgb(0, 0, 0); stroke-opacity: 1; stroke-linecap: round;" class="stroke-shape"/></g><path d="M16.500,12.000L13.500,16.995M13.500,12.000L16.500,16.995M18.000,14.498L12.000,14.498" class="fills"/><g class="strokes"><path d="M16.500,12.000L13.500,16.995M13.500,12.000L16.500,16.995M18.000,14.498L12.000,14.498" style="fill: none; stroke-width: 2; stroke: rgb(0, 0, 0); stroke-opacity: 1; stroke-linecap: round;" class="stroke-shape"/></g><path d="M5.000,22.490L25.000,22.490" class="fills"/><g class="strokes"><path d="M5.000,22.490L25.000,22.490" style="fill: none; stroke-width: 2; stroke: rgb(0, 0, 0); stroke-opacity: 1; stroke-linecap: round;" class="stroke-shape"/></g></g></g></g></g></svg>