<svg width="30" xmlns="http://www.w3.org/2000/svg" height="30" fill="none"><defs><clipPath id="a" class="frame-clip frame-clip-def"><rect rx="0" ry="0" width="30" height="30" transform="matrix(1.000000, 0.000000, 0.000000, 1.000000, 0.000000, 0.000000)"/></clipPath></defs><g class="frame-container-wrapper"><g class="frame-container-blur"><g clip-path="url(#a)" class="frame-container-shadows"><g class="fills"><rect width="30" height="30" class="frame-background" transform="matrix(1.000000, 0.000000, 0.000000, 1.000000, 0.000000, 0.000000)" style="fill: rgb(255, 255, 255); fill-opacity: 1;" ry="0" rx="0"/></g><g class="frame-children"><path d="M14.121,15.692C12.951,14.522,12.951,12.621,14.121,11.450L16.950,8.621C18.121,7.451,20.022,7.451,21.192,8.621L21.192,8.621C22.363,9.792,22.363,11.693,21.192,12.864L19.489,14.568" class="fills"/><g class="strokes"><path d="M14.121,15.692C12.951,14.522,12.951,12.621,14.121,11.450L16.950,8.621C18.121,7.451,20.022,7.451,21.192,8.621L21.192,8.621C22.363,9.792,22.363,11.693,21.192,12.864L19.489,14.568" style="fill: none; stroke-width: 2; stroke: rgb(0, 0, 0); stroke-opacity: 1;" class="stroke-shape"/></g><path d="M16.192,14.621C17.363,15.792,17.363,17.693,16.192,18.864L13.364,21.692C12.193,22.863,10.292,22.863,9.121,21.692L9.121,21.692C7.951,20.522,7.951,18.621,9.121,17.450L10.825,15.746" class="fills"/><g class="strokes"><path d="M16.192,14.621C17.363,15.792,17.363,17.693,16.192,18.864L13.364,21.692C12.193,22.863,10.292,22.863,9.121,21.692L9.121,21.692C7.951,20.522,7.951,18.621,9.121,17.450L10.825,15.746" style="fill: none; stroke-width: 2; stroke: rgb(0, 0, 0); stroke-opacity: 1;" class="stroke-shape"/></g></g></g></g></g></svg>