<svg width="30" xmlns="http://www.w3.org/2000/svg" height="30" fill="none"><defs><clipPath id="a" class="frame-clip frame-clip-def"><rect rx="0" ry="0" width="30" height="30" transform="matrix(1.000000, 0.000000, 0.000000, 1.000000, 0.000000, 0.000000)"/></clipPath></defs><g class="frame-container-wrapper"><g class="frame-container-blur"><g clip-path="url(#a)" class="frame-container-shadows"><g class="fills"><rect width="30" height="30" class="frame-background" transform="matrix(1.000000, 0.000000, 0.000000, 1.000000, 0.000000, 0.000000)" style="fill: rgb(255, 255, 255); fill-opacity: 1;" ry="0" rx="0"/></g><g style="fill: rgb(0, 0, 0);" class="frame-children"><g style="fill: rgb(0, 0, 0);"><path d="M15.593,26.258L15.593,26.258ZL15.593,26.258ZL15.491,26.299L15.477,26.295L15.406,26.260C15.395,26.257,15.387,26.258,15.382,26.265L15.378,26.275L15.361,26.703L15.366,26.723L15.376,26.736L15.480,26.810L15.495,26.814L15.507,26.810L15.611,26.736L15.623,26.720L15.627,26.703L15.593,26.258ZC15.607,26.265,15.602,26.259,15.593,26.258ZM15.858,26.145L15.858,26.145ZL15.660,26.240L15.650,26.250L15.647,26.261L15.665,26.691L15.670,26.703L15.678,26.710L15.879,26.803C15.892,26.806,15.901,26.804,15.908,26.795L15.912,26.781L15.858,26.145ZC15.875,26.155,15.868,26.148,15.858,26.145ZM15.143,26.147C15.134,26.141,15.122,26.144,15.143,26.147ZL15.143,26.147ZL15.076,26.781C15.077,26.793,15.082,26.801,15.093,26.805L15.108,26.803L15.309,26.710L15.319,26.702L15.323,26.691L15.340,26.261L15.337,26.249L15.327,26.239Z" fill="none" style="fill: none;" class="fills"/><defs><linearGradient id="b" x1=".5" x2=".5" y1=".053" y2=".918"><stop offset="0"/><stop offset="1" stop-opacity=".55"/></linearGradient></defs><path d="M13.249,4.646C14.057,4.526,14.813,5.075,14.949,5.881C15.084,6.687,14.549,7.453,13.746,7.604C10.139,8.216,7.499,11.341,7.500,15.000C7.500,19.142,10.858,22.500,15.000,22.500L15.000,25.500C9.201,25.500,4.500,20.800,4.500,15.000C4.500,9.855,8.226,5.490,13.249,4.646Z" fill="url(#b)" style="fill: url(&quot;#b&quot;);" class="fills"/><defs><linearGradient id="c" x1=".5" x2=".5" y1=".152" y2=".872"><stop offset="0" stop-opacity="0"/><stop offset="1" stop-opacity=".55"/></linearGradient></defs><path d="M19.892,7.298C20.158,7.002,20.530,6.823,20.928,6.801C21.325,6.780,21.715,6.917,22.011,7.183C24.234,9.173,25.503,12.016,25.500,15.000C25.500,20.800,20.799,25.500,15.000,25.500L15.000,22.500C18.108,22.500,20.894,20.583,22.005,17.681C23.116,14.778,22.321,11.491,20.007,9.416C19.390,8.863,19.339,7.915,19.892,7.298Z" fill="url(#c)" style="fill: url(&quot;#c&quot;);" class="fills"/></g></g></g></g></g></svg>