<svg width="30" xmlns="http://www.w3.org/2000/svg" height="30" fill="none"><defs><clipPath id="a" class="frame-clip frame-clip-def"><rect rx="0" ry="0" width="30" height="30" transform="matrix(1.000000, 0.000000, 0.000000, 1.000000, 0.000000, 0.000000)"/></clipPath></defs><g class="frame-container-wrapper"><g class="frame-container-blur"><g clip-path="url(#a)" class="frame-container-shadows"><g class="fills"><rect width="30" height="30" class="frame-background" transform="matrix(1.000000, 0.000000, 0.000000, 1.000000, 0.000000, 0.000000)" style="fill: rgb(255, 255, 255); fill-opacity: 1;" ry="0" rx="0"/></g><g style="fill: rgb(0, 0, 0);" class="frame-children"><path d="M18.200,24.300L24.600,24.300C25.484,24.300,26.200,23.673,26.200,22.900L26.200,6.100C26.200,5.327,25.484,4.700,24.600,4.700L18.200,4.700C17.316,4.700,16.600,5.327,16.600,6.100L16.600,22.900C16.600,23.673,17.316,24.300,18.200,24.300ZZM18.200,24.300L9.400,24.300M13.400,20.100L13.400,24.300M16.600,11.700L26.200,11.700M19.000,20.100L23.800,20.100M5.400,8.900L16.600,8.900L16.600,20.100L5.400,20.100C4.516,20.100,3.800,19.473,3.800,18.700L3.800,10.300C3.800,9.527,4.516,8.900,5.400,8.900ZZ" fill="none" style="fill: none;" class="fills"/><g fill="none" class="strokes"><path d="M18.200,24.300L24.600,24.300C25.484,24.300,26.200,23.673,26.200,22.900L26.200,6.100C26.200,5.327,25.484,4.700,24.600,4.700L18.200,4.700C17.316,4.700,16.600,5.327,16.600,6.100L16.600,22.900C16.600,23.673,17.316,24.300,18.200,24.300ZZM18.200,24.300L9.400,24.300M13.400,20.100L13.400,24.300M16.600,11.700L26.200,11.700M19.000,20.100L23.800,20.100M5.400,8.900L16.600,8.900L16.600,20.100L5.400,20.100C4.516,20.100,3.800,19.473,3.800,18.700L3.800,10.300C3.800,9.527,4.516,8.900,5.400,8.900ZZ" style="fill: none; stroke-width: 2; stroke: rgb(0, 0, 0); stroke-opacity: 1; stroke-linecap: round;" class="stroke-shape"/></g></g></g></g></g></svg>