<svg width="30" height="30" viewBox="0 0 30 30" fill="none" xmlns="http://www.w3.org/2000/svg">
<path d="M18.2 24.3H24.6C25.484 24.3 26.2 23.673 26.2 22.9V6.1C26.2 5.327 25.484 4.7 24.6 4.7H18.2C17.316 4.7 16.6 5.327 16.6 6.1V22.9C16.6 23.673 17.316 24.3 18.2 24.3ZM18.2 24.3H9.39999M13.4 20.1V24.3M16.6 11.7H26.2M19 20.1H23.8M5.39999 8.9H16.6V20.1H5.39999C4.51599 20.1 3.79999 19.473 3.79999 18.7V10.3C3.79999 9.527 4.51599 8.9 5.39999 8.9Z" stroke="black" stroke-width="2" stroke-linecap="round"/>
</svg>
