<svg width="30" xmlns="http://www.w3.org/2000/svg" height="30" fill="none"><defs><clipPath id="a" class="frame-clip frame-clip-def"><rect rx="0" ry="0" width="30" height="30" transform="matrix(1.000000, 0.000000, 0.000000, 1.000000, 0.000000, 0.000000)"/></clipPath></defs><g class="frame-container-wrapper"><g class="frame-container-blur"><g clip-path="url(#a)" class="frame-container-shadows"><g class="fills"><rect width="30" height="30" class="frame-background" transform="matrix(1.000000, 0.000000, 0.000000, 1.000000, 0.000000, 0.000000)" style="fill: rgb(255, 255, 255); fill-opacity: 1;" ry="0" rx="0"/></g><g class="frame-children"><path d="M20.251,3.291C16.355,7.187,5.021,18.521,5.021,18.521L2.182,27.724L11.031,24.531C11.031,24.531,22.719,12.843,26.261,9.301C29.803,5.759,24.147,-0.605,20.251,3.291Z" class="fills"/><g class="strokes"><g class="inner-stroke-shape"><defs><clipPath id="c"><use href="#b"/></clipPath><path d="M20.251,3.291C16.355,7.187,5.021,18.521,5.021,18.521L2.182,27.724L11.031,24.531C11.031,24.531,22.719,12.843,26.261,9.301C29.803,5.759,24.147,-0.605,20.251,3.291Z" id="b" style="fill: none; stroke-width: 4; stroke: rgb(0, 0, 0); stroke-opacity: 1;"/></defs><use href="#b" clip-path="url('#c')"/></g></g><path d="M19.500,4.500L22.225,7.225L24.756,9.756M22.225,7.225L9.723,19.727" class="fills"/><g class="strokes"><g class="stroke-shape"><defs><marker refX="3" fill-opacity="1" orient="auto-start-reverse" id="d" viewBox="0 0 6 6" fill="#000" refY="3" markerWidth="6" markerHeight="6"><path d="M 3 2.5 A 0.5 0.5 0 0 1 3 3.5"/></marker></defs><path d="M19.500,4.500L22.225,7.225L24.756,9.756M22.225,7.225L9.723,19.727" style="fill: none; stroke-width: 2; stroke: rgb(0, 0, 0); stroke-opacity: 1; marker-end: url(&quot;#d&quot;);"/></g></g></g></g></g></g></svg>