<svg width="30" height="30" viewBox="0 0 30 30" fill="none" xmlns="http://www.w3.org/2000/svg">
<path d="M17.5 3C19.333 4.833 21.167 6.667 23 8.5H19.071C18.204 8.5 17.5 7.796 17.5 6.929V3Z" fill="black"/>
<path d="M7 11.04V5C7 3.896 7.896 3 9 3H17.737L23 8.233V11.024" stroke="black" stroke-width="2" stroke-linecap="square"/>
<path d="M7 23H5C3.896 23 3 22.104 3 21V15.5C3 14.396 3.896 13.5 5 13.5H25C26.104 13.5 27 14.396 27 15.5V21C27 22.104 26.104 23 25 23H23" stroke="black" stroke-width="2"/>
<path d="M21 18.5H9C7.89543 18.5 7 19.3954 7 20.5V25C7 26.1046 7.89543 27 9 27H21C22.1046 27 23 26.1046 23 25V20.5C23 19.3954 22.1046 18.5 21 18.5Z" stroke="black" stroke-width="2"/>
</svg>
