<svg width="30" xmlns="http://www.w3.org/2000/svg" height="30" fill="none"><defs><clipPath id="a" class="frame-clip frame-clip-def"><rect rx="0" ry="0" width="30" height="30" transform="matrix(1.000000, 0.000000, 0.000000, 1.000000, 0.000000, 0.000000)"/></clipPath></defs><g class="frame-container-wrapper"><g class="frame-container-blur"><g clip-path="url(#a)" class="frame-container-shadows"><g class="fills"><rect width="30" height="30" class="frame-background" transform="matrix(1.000000, 0.000000, 0.000000, 1.000000, 0.000000, 0.000000)" style="fill: rgb(255, 255, 255); fill-opacity: 1;" ry="0" rx="0"/></g><g class="frame-children"><path d="M17.500,3.000C19.333,4.833,21.167,6.667,23.000,8.500L19.071,8.500C18.204,8.500,17.500,7.796,17.500,6.929L17.500,3.000ZZ" style="fill: rgb(0, 0, 0); fill-opacity: 1;" class="fills"/><path d="M7.000,11.040L7.000,5.000C7.000,3.896,7.896,3.000,9.000,3.000L17.737,3.000L23.000,8.233L23.000,11.024" class="fills"/><g class="strokes"><path d="M7.000,11.040L7.000,5.000C7.000,3.896,7.896,3.000,9.000,3.000L17.737,3.000L23.000,8.233L23.000,11.024" style="fill: none; stroke-width: 2; stroke: rgb(0, 0, 0); stroke-opacity: 1; stroke-linecap: square;" class="stroke-shape"/></g><path d="M7.000,23.000L5.000,23.000C3.896,23.000,3.000,22.104,3.000,21.000L3.000,15.500C3.000,14.396,3.896,13.500,5.000,13.500L25.000,13.500C26.104,13.500,27.000,14.396,27.000,15.500L27.000,21.000C27.000,22.104,26.104,23.000,25.000,23.000L23.000,23.000" class="fills"/><g class="strokes"><path d="M7.000,23.000L5.000,23.000C3.896,23.000,3.000,22.104,3.000,21.000L3.000,15.500C3.000,14.396,3.896,13.500,5.000,13.500L25.000,13.500C26.104,13.500,27.000,14.396,27.000,15.500L27.000,21.000C27.000,22.104,26.104,23.000,25.000,23.000L23.000,23.000" style="fill: none; stroke-width: 2; stroke: rgb(0, 0, 0); stroke-opacity: 1;" class="stroke-shape"/></g><rect rx="2" ry="2" x="7" y="18.5" transform="matrix(1.000000, 0.000000, 0.000000, 1.000000, 0.000000, 0.000000)" width="16" height="8.5" class="fills"/><g class="strokes"><rect rx="2" ry="2" x="7" y="18.5" transform="matrix(1.000000, 0.000000, 0.000000, 1.000000, 0.000000, 0.000000)" width="16" height="8.5" style="fill: none; stroke-width: 2; stroke: rgb(0, 0, 0); stroke-opacity: 1;" class="stroke-shape"/></g></g></g></g></g></svg>