<svg width="30" xmlns="http://www.w3.org/2000/svg" height="30" fill="none"><defs><clipPath id="a" class="frame-clip frame-clip-def"><rect rx="0" ry="0" width="30" height="30" transform="matrix(1.000000, 0.000000, 0.000000, 1.000000, 0.000000, 0.000000)"/></clipPath></defs><g class="frame-container-wrapper"><g class="frame-container-blur"><g clip-path="url(#a)" class="frame-container-shadows"><g class="fills"><rect width="30" height="30" class="frame-background" transform="matrix(1.000000, 0.000000, 0.000000, 1.000000, 0.000000, 0.000000)" style="fill: rgb(255, 255, 255); fill-opacity: 1;" ry="0" rx="0"/></g><g class="frame-children"><path d="M22.013,13.151C21.885,13.279,21.834,13.465,21.869,13.643C21.955,14.082,22.000,14.536,22.000,15.000C22.000,18.866,18.866,22.000,15.000,22.000C12.954,22.000,11.113,21.122,9.833,19.722C9.631,19.502,9.284,19.479,9.073,19.690C8.894,19.869,8.877,20.155,9.046,20.344C10.511,21.974,12.636,23.000,15.000,23.000C19.418,23.000,23.000,19.418,23.000,15.000C23.000,14.442,22.943,13.898,22.834,13.372C22.755,12.990,22.289,12.875,22.013,13.151ZZM20.789,10.161C20.971,9.978,20.985,9.685,20.807,9.497C19.349,7.959,17.287,7.000,15.000,7.000C10.582,7.000,7.000,10.582,7.000,15.000C7.000,15.601,7.066,16.187,7.192,16.751C7.276,17.128,7.738,17.238,8.011,16.965C8.142,16.835,8.192,16.646,8.154,16.465C8.053,15.993,8.000,15.503,8.000,15.000C8.000,11.134,11.134,8.000,15.000,8.000C16.978,8.000,18.765,8.821,20.038,10.140C20.241,10.351,20.581,10.369,20.789,10.161ZZ" fill-rule="evenodd" clip-rule="evenodd" style="fill: rgb(0, 0, 0);" class="fills"/><g fill-rule="evenodd" clip-rule="evenodd" class="strokes"><path d="M22.013,13.151C21.885,13.279,21.834,13.465,21.869,13.643C21.955,14.082,22.000,14.536,22.000,15.000C22.000,18.866,18.866,22.000,15.000,22.000C12.954,22.000,11.113,21.122,9.833,19.722C9.631,19.502,9.284,19.479,9.073,19.690C8.894,19.869,8.877,20.155,9.046,20.344C10.511,21.974,12.636,23.000,15.000,23.000C19.418,23.000,23.000,19.418,23.000,15.000C23.000,14.442,22.943,13.898,22.834,13.372C22.755,12.990,22.289,12.875,22.013,13.151ZZM20.789,10.161C20.971,9.978,20.985,9.685,20.807,9.497C19.349,7.959,17.287,7.000,15.000,7.000C10.582,7.000,7.000,10.582,7.000,15.000C7.000,15.601,7.066,16.187,7.192,16.751C7.276,17.128,7.738,17.238,8.011,16.965C8.142,16.835,8.192,16.646,8.154,16.465C8.053,15.993,8.000,15.503,8.000,15.000C8.000,11.134,11.134,8.000,15.000,8.000C16.978,8.000,18.765,8.821,20.038,10.140C20.241,10.351,20.581,10.369,20.789,10.161ZZ" style="fill: none; stroke-width: 1; stroke: rgb(0, 0, 0); stroke-opacity: 1;" class="stroke-shape"/></g><path d="M21.125,8.500L21.125,10.500L19.125,10.500" style="fill: none;" class="fills"/><g stroke-linejoin="round" class="strokes"><path d="M21.125,8.500L21.125,10.500L19.125,10.500" style="fill: none; stroke-width: 2; stroke: rgb(0, 0, 0); stroke-opacity: 1; stroke-linecap: round;" class="stroke-shape"/></g><path d="M10.875,19.500L8.875,19.500L8.875,21.500" style="fill: none;" class="fills"/><g stroke-linejoin="round" class="strokes"><path d="M10.875,19.500L8.875,19.500L8.875,21.500" style="fill: none; stroke-width: 2; stroke: rgb(0, 0, 0); stroke-opacity: 1; stroke-linecap: round;" class="stroke-shape"/></g></g></g></g></g></svg>