<svg width="30" height="30" viewBox="0 0 30 30" fill="none" xmlns="http://www.w3.org/2000/svg">
<path fill-rule="evenodd" clip-rule="evenodd" d="M22.013 13.151C21.885 13.279 21.834 13.465 21.869 13.643C21.955 14.082 22 14.536 22 15C22 18.866 18.866 22 15 22C12.954 22 11.113 21.122 9.833 19.722C9.631 19.502 9.284 19.479 9.073 19.69C8.894 19.869 8.877 20.155 9.046 20.344C10.511 21.974 12.636 23 15 23C19.418 23 23 19.418 23 15C23 14.442 22.943 13.898 22.834 13.372C22.755 12.99 22.289 12.875 22.013 13.151ZM20.789 10.161C20.971 9.978 20.985 9.685 20.807 9.497C19.349 7.959 17.287 7 15 7C10.582 7 7 10.582 7 15C7 15.601 7.066 16.187 7.192 16.751C7.276 17.128 7.738 17.238 8.011 16.965C8.142 16.835 8.192 16.646 8.154 16.465C8.053 15.993 8 15.503 8 15C8 11.134 11.134 8 15 8C16.978 8 18.765 8.821 20.038 10.14C20.241 10.351 20.581 10.369 20.789 10.161Z" stroke="black"/>
<path d="M21.125 8.5V10.5H19.125" stroke="black" stroke-width="2" stroke-linecap="round" stroke-linejoin="round"/>
<path d="M10.875 19.5H8.875V21.5" stroke="black" stroke-width="2" stroke-linecap="round" stroke-linejoin="round"/>
</svg>
