<svg width="30" xmlns="http://www.w3.org/2000/svg" height="30" fill="none"><defs><clipPath id="a" class="frame-clip frame-clip-def"><rect rx="0" ry="0" width="30" height="30" transform="matrix(1.000000, 0.000000, 0.000000, 1.000000, 0.000000, 0.000000)"/></clipPath></defs><g class="frame-container-wrapper"><g class="frame-container-blur"><g clip-path="url(#a)" class="frame-container-shadows"><g class="fills"><rect width="30" height="30" class="frame-background" transform="matrix(1.000000, 0.000000, 0.000000, 1.000000, 0.000000, 0.000000)" style="fill: rgb(255, 255, 255); fill-opacity: 1;" ry="0" rx="0"/></g><g class="frame-children"><ellipse cx="15" cy="22.25" rx="1.25" ry="1.25" transform="matrix(1.000000, 0.000000, 0.000000, 1.000000, 0.000000, 0.000000)" style="fill: rgb(0, 0, 0); fill-opacity: 1;" class="fills"/><path d="M6.000,26.000C8.000,26.000,22.000,26.000,24.000,26.000C26.000,26.000,26.000,24.000,25.000,22.500C25.000,22.500,17.000,8.000,17.000,8.000C16.000,6.500,14.000,6.500,13.000,8.000C13.000,8.000,5.000,22.500,5.000,22.500C4.000,24.000,4.000,26.000,6.000,26.000ZL6.000,26.000Z" class="fills"/><g class="strokes"><path d="M6.000,26.000C8.000,26.000,22.000,26.000,24.000,26.000C26.000,26.000,26.000,24.000,25.000,22.500C25.000,22.500,17.000,8.000,17.000,8.000C16.000,6.500,14.000,6.500,13.000,8.000C13.000,8.000,5.000,22.500,5.000,22.500C4.000,24.000,4.000,26.000,6.000,26.000ZL6.000,26.000Z" style="fill: none; stroke-width: 2; stroke: rgb(0, 0, 0); stroke-opacity: 1;" class="stroke-shape"/></g><path d="M15.000,19.000L15.000,13.000" class="fills"/><g class="strokes"><path d="M15.000,19.000L15.000,13.000" style="fill: none; stroke-width: 2; stroke: rgb(0, 0, 0); stroke-opacity: 1; stroke-linecap: round;" class="stroke-shape"/></g></g></g></g></g></svg>