<svg width="30" xmlns="http://www.w3.org/2000/svg" height="30" id="screenshot-f32a93af-c031-802f-8005-fb29a2f521fb" fill="none" version="1.1"><style>/* cyrillic-ext */
@font-face {
  font-family: &apos;Nunito&apos;;
  font-style: normal;
  font-weight: 900;
  font-display: block;
  src: url(https://design.penpot.app/internal/gfonts/font/nunito/v26/XRXI3I6Li01BKofiOc5wtlZ2di8HDBImdTk3j77e.woff2) format(&apos;woff2&apos;);
  unicode-range: U+0460-052F, U+1C80-1C8A, U+20B4, U+2DE0-2DFF, U+A640-A69F, U+FE2E-FE2F;
}
/* cyrillic */
@font-face {
  font-family: &apos;Nunito&apos;;
  font-style: normal;
  font-weight: 900;
  font-display: block;
  src: url(https://design.penpot.app/internal/gfonts/font/nunito/v26/XRXI3I6Li01BKofiOc5wtlZ2di8HDBImdTA3j77e.woff2) format(&apos;woff2&apos;);
  unicode-range: U+0301, U+0400-045F, U+0490-0491, U+04B0-04B1, U+2116;
}
/* vietnamese */
@font-face {
  font-family: &apos;Nunito&apos;;
  font-style: normal;
  font-weight: 900;
  font-display: block;
  src: url(https://design.penpot.app/internal/gfonts/font/nunito/v26/XRXI3I6Li01BKofiOc5wtlZ2di8HDBImdTs3j77e.woff2) format(&apos;woff2&apos;);
  unicode-range: U+0102-0103, U+0110-0111, U+0128-0129, U+0168-0169, U+01A0-01A1, U+01AF-01B0, U+0300-0301, U+0303-0304, U+0308-0309, U+0323, U+0329, U+1EA0-1EF9, U+20AB;
}
/* latin-ext */
@font-face {
  font-family: &apos;Nunito&apos;;
  font-style: normal;
  font-weight: 900;
  font-display: block;
  src: url(https://design.penpot.app/internal/gfonts/font/nunito/v26/XRXI3I6Li01BKofiOc5wtlZ2di8HDBImdTo3j77e.woff2) format(&apos;woff2&apos;);
  unicode-range: U+0100-02BA, U+02BD-02C5, U+02C7-02CC, U+02CE-02D7, U+02DD-02FF, U+0304, U+0308, U+0329, U+1D00-1DBF, U+1E00-1E9F, U+1EF2-1EFF, U+2020, U+20A0-20AB, U+20AD-20C0, U+2113, U+2C60-2C7F, U+A720-A7FF;
}
/* latin */
@font-face {
  font-family: &apos;Nunito&apos;;
  font-style: normal;
  font-weight: 900;
  font-display: block;
  src: url(https://design.penpot.app/internal/gfonts/font/nunito/v26/XRXI3I6Li01BKofiOc5wtlZ2di8HDBImdTQ3jw.woff2) format(&apos;woff2&apos;);
  unicode-range: U+0000-00FF, U+0131, U+0152-0153, U+02BB-02BC, U+02C6, U+02DA, U+02DC, U+0304, U+0308, U+0329, U+2000-206F, U+20AC, U+2122, U+2191, U+2193, U+2212, U+2215, U+FEFF, U+FFFD;
}</style><g id="shape-f32a93af-c031-802f-8005-fb29a2f521fb"><defs><clipPath id="frame-clip-f32a93af-c031-802f-8005-fb29a2f521fb-render-30" class="frame-clip frame-clip-def"><rect rx="0" ry="0" width="30" height="30" transform="matrix(1.000000, 0.000000, 0.000000, 1.000000, 0.000000, 0.000000)"/></clipPath></defs><g class="frame-container-wrapper"><g class="frame-container-blur"><g clip-path="url(#frame-clip-f32a93af-c031-802f-8005-fb29a2f521fb-render-30)" class="frame-container-shadows"><g class="fills" id="fills-f32a93af-c031-802f-8005-fb29a2f521fb"><rect width="30" height="30" class="frame-background" transform="matrix(1.000000, 0.000000, 0.000000, 1.000000, 0.000000, 0.000000)" style="fill: rgb(255, 255, 255); fill-opacity: 1;" ry="0" rx="0"/></g><g class="frame-children"><g id="shape-f32a93af-c031-802f-8005-fb29a2f521fc"><g id="shape-f32a93af-c031-802f-8005-fb29a2f521fd"><rect rx="1" ry="1" x="6.5" y="5" transform="matrix(1.000000, 0.000000, 0.000000, 1.000000, 0.000000, 0.000000)" width="17" height="20" class="fills" id="fills-f32a93af-c031-802f-8005-fb29a2f521fd"/><g id="strokes-d3e4c3db-0a8b-80a7-8006-12e0bd7d8acc-f32a93af-c031-802f-8005-fb29a2f521fd" class="strokes"><g class="inner-stroke-shape" transform="matrix(1.000000, 0.000000, 0.000000, 1.000000, 0.000000, 0.000000)"><defs><clipPath id="inner-stroke-render-32-f32a93af-c031-802f-8005-fb29a2f521fd-0"><use href="#stroke-shape-render-32-f32a93af-c031-802f-8005-fb29a2f521fd-0"/></clipPath><rect rx="1" ry="1" x="6.5" y="5" width="17" height="20" id="stroke-shape-render-32-f32a93af-c031-802f-8005-fb29a2f521fd-0" style="fill: none; stroke-width: 2; stroke: rgb(0, 0, 0); stroke-opacity: 1;"/></defs><use href="#stroke-shape-render-32-f32a93af-c031-802f-8005-fb29a2f521fd-0" clip-path="url('#inner-stroke-render-32-f32a93af-c031-802f-8005-fb29a2f521fd-0')"/></g></g></g><g id="shape-f32a93af-c031-802f-8005-fb29a2f521fe"><g id="shape-f32a93af-c031-802f-8005-fb29a2f521ff"><g class="fills" id="fills-f32a93af-c031-802f-8005-fb29a2f521ff"><path d="M12.621,7.171C12.807,7.089,13.025,7.161,13.110,7.331C13.194,7.502,13.112,7.705,12.927,7.788C12.386,8.026,12.052,8.387,11.968,8.694C11.946,8.776,11.944,8.849,11.965,8.905C11.981,8.948,12.016,8.984,12.068,9.010C12.293,9.120,12.740,9.094,13.460,8.823C13.886,8.662,14.339,8.462,14.740,8.285C15.149,8.104,15.507,7.945,15.759,7.864C16.225,7.716,16.693,7.593,17.080,7.558C17.588,7.510,17.988,7.607,18.168,7.948C18.284,8.168,18.289,8.373,18.293,8.556C18.295,8.622,18.296,8.683,18.305,8.722C18.305,8.724,18.381,8.708,18.746,8.629C19.169,8.539,19.590,8.321,20.005,8.106C20.218,7.995,20.430,7.886,20.672,7.779C20.858,7.698,21.076,7.771,21.159,7.941C21.242,8.112,21.159,8.316,20.974,8.396C20.786,8.479,20.571,8.591,20.354,8.702C19.892,8.942,19.424,9.184,18.898,9.297C17.935,9.504,17.673,9.281,17.582,8.876C17.560,8.781,17.558,8.687,17.555,8.585C17.552,8.472,17.549,8.344,17.504,8.259C17.484,8.220,17.343,8.219,17.140,8.238C16.816,8.268,16.402,8.377,15.983,8.511C15.775,8.577,15.434,8.728,15.044,8.901C14.637,9.082,14.176,9.285,13.723,9.456C12.775,9.812,12.112,9.810,11.713,9.615C11.489,9.505,11.342,9.342,11.267,9.145C11.197,8.961,11.194,8.754,11.253,8.539C11.387,8.053,11.867,7.503,12.621,7.171ZZ" class="st0" style="stroke-width: 0.529752; fill: rgb(0, 0, 0); fill-opacity: 1;"/></g></g><g transform="matrix(1.000000, 0.000000, 0.000000, 1.000000, 0.000000, 0.000000)" class="text-container" id="shape-f32a93af-c031-802f-8005-fb29a2f52202"><defs><pattern patternUnits="userSpaceOnUse" x="8.5" y="6.5" width="2.406" height="16.688" id="fill-0-render-35-0"><rect width="2.406" height="16.688" style="fill: rgb(0, 0, 0); fill-opacity: 1;"/></pattern><pattern patternUnits="userSpaceOnUse" x="8.5" y="6.5" width="2.406" height="16.688" id="fill-1-render-35-0"><rect width="2.406" height="16.688" style="fill: rgb(0, 0, 0); fill-opacity: 1;"/></pattern><pattern patternUnits="userSpaceOnUse" x="8.5" y="6.5" width="2.406" height="16.688" id="fill-2-render-35-0"><rect width="2.406" height="16.688" style="fill: rgb(0, 0, 0); fill-opacity: 1;"/></pattern></defs><text x="8.5" y="12" dominant-baseline="ideographic" textLength="2.406" lengthAdjust="spacingAndGlyphs" style="text-transform: none; font-family: Nunito; letter-spacing: normal; font-style: normal; font-weight: 900; white-space: pre; font-size: 4px; text-decoration: none solid rgb(0, 0, 0); direction: ltr; fill: rgb(0, 0, 0); fill-opacity: 1;" class="fills" id="fills-f32a93af-c031-802f-8005-fb29a2f52202">1</text><defs><pattern patternUnits="userSpaceOnUse" x="8.5" y="6.5" width="2.406" height="16.688" id="fill-0-render-35-1"><rect width="2.406" height="16.688" style="fill: rgb(0, 0, 0); fill-opacity: 1;"/></pattern><pattern patternUnits="userSpaceOnUse" x="8.5" y="6.5" width="2.406" height="16.688" id="fill-1-render-35-1"><rect width="2.406" height="16.688" style="fill: rgb(0, 0, 0); fill-opacity: 1;"/></pattern><pattern patternUnits="userSpaceOnUse" x="8.5" y="6.5" width="2.406" height="16.688" id="fill-2-render-35-1"><rect width="2.406" height="16.688" style="fill: rgb(0, 0, 0); fill-opacity: 1;"/></pattern></defs><text x="8.5" y="17.594" dominant-baseline="ideographic" textLength="2.406" lengthAdjust="spacingAndGlyphs" style="text-transform: none; font-family: Nunito; letter-spacing: normal; font-style: normal; font-weight: 900; white-space: pre; font-size: 4px; text-decoration: none solid rgb(0, 0, 0); direction: ltr; fill: rgb(0, 0, 0); fill-opacity: 1;" class="fills">2</text><defs><pattern patternUnits="userSpaceOnUse" x="8.5" y="6.5" width="2.406" height="16.688" id="fill-0-render-35-2"><rect width="2.406" height="16.688" style="fill: rgb(0, 0, 0); fill-opacity: 1;"/></pattern><pattern patternUnits="userSpaceOnUse" x="8.5" y="6.5" width="2.406" height="16.688" id="fill-1-render-35-2"><rect width="2.406" height="16.688" style="fill: rgb(0, 0, 0); fill-opacity: 1;"/></pattern><pattern patternUnits="userSpaceOnUse" x="8.5" y="6.5" width="2.406" height="16.688" id="fill-2-render-35-2"><rect width="2.406" height="16.688" style="fill: rgb(0, 0, 0); fill-opacity: 1;"/></pattern></defs><text x="8.5" y="23.188" dominant-baseline="ideographic" textLength="2.406" lengthAdjust="spacingAndGlyphs" style="text-transform: none; font-family: Nunito; letter-spacing: normal; font-style: normal; font-weight: 900; white-space: pre; font-size: 4px; text-decoration: none solid rgb(0, 0, 0); direction: ltr; fill: rgb(0, 0, 0); fill-opacity: 1;" class="fills">3</text></g><g id="shape-f32a93af-c031-802f-8005-fb29a2f52203"><path d="M11.542,10.250L20.670,10.250" class="fills" id="fills-f32a93af-c031-802f-8005-fb29a2f52203"/><g id="strokes-d3e4c3db-0a8b-80a7-8006-12e0bd7f74a8-f32a93af-c031-802f-8005-fb29a2f52203" class="strokes"><path d="M11.542,10.250L20.670,10.250" style="fill: none; stroke-width: 0.5; stroke: rgb(0, 0, 0); stroke-opacity: 1; stroke-linecap: round;" class="stroke-shape"/></g></g><g id="shape-f32a93af-c031-802f-8005-fb29a2f52204"><path d="M11.542,22.000L20.670,22.000" class="fills" id="fills-f32a93af-c031-802f-8005-fb29a2f52204"/><g id="strokes-d3e4c3db-0a8b-80a7-8006-12e0bd7fa204-f32a93af-c031-802f-8005-fb29a2f52204" class="strokes"><path d="M11.542,22.000L20.670,22.000" style="fill: none; stroke-width: 0.5; stroke: rgb(0, 0, 0); stroke-opacity: 1; stroke-linecap: round;" class="stroke-shape"/></g></g><g id="shape-f32a93af-c031-802f-8005-fb29a2f52205"><path d="M11.542,16.125L20.670,16.125" class="fills" id="fills-f32a93af-c031-802f-8005-fb29a2f52205"/><g id="strokes-d3e4c3db-0a8b-80a7-8006-12e0bd7fe2ba-f32a93af-c031-802f-8005-fb29a2f52205" class="strokes"><path d="M11.542,16.125L20.670,16.125" style="fill: none; stroke-width: 0.5; stroke: rgb(0, 0, 0); stroke-opacity: 1; stroke-linecap: round;" class="stroke-shape"/></g></g></g></g></g></g></g></g></g></svg>